<svg width="300" height="88" viewBox="0 0 300 88" fill="none" xmlns="http://www.w3.org/2000/svg">
<g clip-path="url(#clip0_105_103)">
<path d="M300.01 0H174.963V88H300.01V0Z" fill="#E8253D"/>
<path d="M272.003 77.9337C272.003 78.4979 271.738 79.3018 271.068 79.6827C272.296 80.2891 272.533 81.4598 272.394 82.4612C272.212 83.8011 271.25 85 268.976 85H265V75H268.906C270.608 75 272.003 76.0014 272.003 77.9337ZM267.051 78.921H268.906C270.301 78.921 270.469 77.031 268.906 77.031H267.051V78.921ZM267.051 82.9831H268.906C270.831 82.9831 270.859 80.6982 268.906 80.6982H267.051V82.9831Z" fill="white"/>
<path d="M275.77 77.031V78.9915H280.025V81.0085H275.77V82.9831H280.402V85H273.705V75H280.402V77.031H275.77Z" fill="white"/>
<path d="M288.912 77.0874H286.08V85H284.015V77.0874H281.183V75H288.912V77.0874Z" fill="white"/>
<path d="M293.457 75.0141L297 85H294.852L293.987 82.7151H291.043L290.22 85H288.03L291.49 75.0141H293.457ZM292.117 78.653L291.559 80.811H293.457L292.829 78.6389L292.522 77.2144H292.424L292.117 78.653Z" fill="white"/>
<path d="M256.201 19.5556H275.394C298.718 19.624 298.444 53.1618 275.463 53.1618H266.243V68.2195H256.201V19.5556ZM275.394 43.6773C285.182 43.6773 285.368 29.7244 275.394 29.7244H266.243V43.6773H275.394Z" fill="white"/>
<path d="M236.243 19.5556H217.05V51.744L222.922 68.2195H227.053V53.1618H236.273C259.293 53.1618 259.567 19.624 236.243 19.5556ZM236.243 43.6773H227.092V29.7244H236.243C246.217 29.7244 246.08 43.6773 236.243 43.6773Z" fill="white"/>
<path d="M8.74033 75.8756V84.1769C8.74033 86.592 6.55769 87.8436 4.35548 87.8436C3.36659 87.9053 2.3876 87.6165 1.59087 87.0281C0.794153 86.4397 0.230798 85.5893 0 84.6267L1.4192 84.3431C1.58474 84.9816 1.96934 85.5417 2.50594 85.9259C3.04254 86.31 3.6971 86.4939 4.35548 86.4453C5.82362 86.4453 7.29177 85.6729 7.29177 84.128V77.2836H3.42566V75.8756H8.74033Z" fill="#3C4853"/>
<path d="M31.5064 87.6773H29.9991L28.5994 83.8933H23.9503C23.5001 85.1253 22.9716 86.4453 22.5801 87.6773H21.063L25.3989 75.8756H27.1704L31.5064 87.6773ZM28.11 82.4951C27.4445 80.6764 26.9453 79.2587 26.27 77.3814C25.6534 79.112 25.0759 80.7253 24.4201 82.4951H28.11Z" fill="#3C4853"/>
<path d="M44.1714 75.8756H48.7716C49.2906 75.8382 49.8117 75.9081 50.3025 76.0808C50.7933 76.2536 51.2432 76.5255 51.6241 76.8796C52.005 77.2337 52.3088 77.6625 52.5166 78.1391C52.7243 78.6157 52.8315 79.1299 52.8315 79.6498C52.8315 80.1696 52.7243 80.6838 52.5166 81.1604C52.3088 81.637 52.005 82.0658 51.6241 82.4199C51.2432 82.774 50.7933 83.046 50.3025 83.2187C49.8117 83.3915 49.2906 83.4613 48.7716 83.424H45.5613V87.6773H44.1519L44.1714 75.8756ZM48.7716 82.0258C49.1055 82.0629 49.4434 82.0293 49.7634 81.9271C50.0834 81.8249 50.3781 81.6564 50.6285 81.4326C50.8788 81.2088 51.0791 80.9348 51.2162 80.6284C51.3533 80.3221 51.4242 79.9902 51.4242 79.6547C51.4242 79.3191 51.3533 78.9872 51.2162 78.6809C51.0791 78.3745 50.8788 78.1005 50.6285 77.8767C50.3781 77.653 50.0834 77.4844 49.7634 77.3822C49.4434 77.28 49.1055 77.2464 48.7716 77.2836H45.5808V82.0258H48.7716Z" fill="#3C4853"/>
<path d="M74.2193 87.6773H72.712L71.3221 83.8933H66.6632C66.2228 85.1253 65.6845 86.4453 65.293 87.6773H63.7759L68.1118 75.8756H69.854L74.2193 87.6773ZM70.823 82.4951C70.1574 80.6764 69.668 79.2587 68.9829 77.3814C68.3663 79.112 67.7888 80.7253 67.1428 82.4951H70.823Z" fill="#3C4853"/>
<path d="M94.6268 75.8756H96.0656V87.6773H94.2549L88.3138 78.3298V87.6773H86.875V75.8756H88.4117L94.617 85.6533L94.6268 75.8756Z" fill="#3C4853"/>
<path d="M111.344 81.0773H117.217V82.4756H111.344V86.2791H117.657V87.6773H109.915V75.8756H117.657V77.2444H111.344V81.0773Z" fill="#3C4853"/>
<path d="M134.922 80.8818C137.017 81.2729 139.326 81.7129 139.17 84.6071C139.052 86.7778 136.938 87.8435 134.785 87.8435C133.874 87.8898 132.969 87.6762 132.175 87.2278C131.382 86.7794 130.732 86.1146 130.302 85.3111L131.614 84.7244C131.934 85.2844 132.404 85.7441 132.971 86.0516C133.538 86.3591 134.18 86.5022 134.824 86.4649C136.253 86.4649 137.653 85.8293 137.76 84.5093C137.907 82.808 136.302 82.5049 134.599 82.1529C132.641 81.752 130.596 81.1751 130.576 78.8382C130.694 76.7751 132.739 75.6702 134.824 75.6702C135.719 75.6222 136.609 75.8293 137.391 76.2673C138.172 76.7052 138.813 77.3561 139.238 78.144L137.946 78.7111C137.634 78.168 137.176 77.7223 136.625 77.4236C136.074 77.1249 135.45 76.985 134.824 77.0195C133.424 77.0195 132.074 77.6355 131.996 78.8871C131.898 80.344 133.336 80.5787 134.922 80.8818Z" fill="#3C4853"/>
<path d="M153.94 81.0773H159.754V82.4756H153.94V86.2791H160.282V87.6773H152.54V75.8756H160.282V77.2444H153.979L153.94 81.0773Z" fill="#3C4853"/>
<path d="M0.0292969 19.7022H9.94413V57.8356H30.5666V67.9067H0.0292969V19.7022Z" fill="#3C4853"/>
<path d="M74.7282 67.8578H64.3632L60.1839 56.8382H45.9331L41.9593 67.8578H31.3789L48.0962 19.7022H57.5999L74.7282 67.8578ZM48.4289 47.6569H57.5999L54.5755 37.1556L53.0976 30.3111H52.618L51.1401 37.2533L48.4289 47.6569Z" fill="#3C4853"/>
<path d="M107.429 54.5209C106.89 51.392 106.078 45.3493 106.01 44.3227V19.7022H115.924V67.8578H105.324L90.7898 42.5529L87.8535 36.0311L87.1782 36.168L88.4604 44.3911V67.8578H78.4966V19.7022H88.2842L103.367 45.9556L106.744 54.6578L107.429 54.5209Z" fill="#3C4853"/>
<path d="M150.426 33.5084C148.869 29.8418 145.101 28.2089 141.392 28.2089C137.075 28.2089 132.896 30.5849 132.896 34.8676V52.4187C132.896 56.7013 137.281 58.8133 141.705 58.8133C146.129 58.8133 150.67 56.7013 150.67 52.4187V50.1013H139.835V40.3822H160.389V52.4187C160.389 63.096 151.091 68.464 141.793 68.5324C132.495 68.6009 123.089 63.2329 123.089 52.4187V34.8676C123.089 24.3271 132.397 19.0275 141.685 19.0275C148.165 19.0275 154.84 21.6774 158.471 29.2258L150.426 33.5084Z" fill="#3C4853"/>
<path d="M199.187 19.5556H189.488L173.984 63.7511V88H176.529L187.296 57.0827H201.811L206.078 68.2195H216.658L199.187 19.5556ZM189.831 47.8036L194.215 31.064L199.187 47.8036H189.831Z" fill="white"/>
</g>
<defs>
<clipPath id="clip0_105_103">
<rect width="300" height="88" fill="white"/>
</clipPath>
</defs>
</svg>
