<svg width="48" height="48" viewBox="0 0 48 48" fill="none" xmlns="http://www.w3.org/2000/svg">
<circle cx="24" cy="24" r="24" fill="#F6F6F9"/>
<path d="M15.4667 19.1733H13.3333C12.6 19.1733 12 19.7733 12 20.5067V32C12 32.7333 12.6 33.3333 13.3333 33.3333H15.4667C16.2 33.3333 16.8 32.7333 16.8 32V20.5067C16.8 19.76 16.2 19.1733 15.4667 19.1733Z" fill="#FF8289"/>
<path d="M25.0668 14.92H22.9334C22.2001 14.92 21.6001 15.52 21.6001 16.2533V32C21.6001 32.7333 22.2001 33.3333 22.9334 33.3333H25.0668C25.8001 33.3333 26.4001 32.7333 26.4001 32V16.2533C26.4001 15.52 25.8001 14.92 25.0668 14.92Z" fill="#FF8289"/>
<path d="M34.6669 10.6667H32.5335C31.8002 10.6667 31.2002 11.2667 31.2002 12V32C31.2002 32.7334 31.8002 33.3334 32.5335 33.3334H34.6669C35.4002 33.3334 36.0002 32.7334 36.0002 32V12C36.0002 11.2667 35.4002 10.6667 34.6669 10.6667Z" fill="#64697D"/>
</svg>
