<svg viewBox="0 0 42 24" fill="none" id="amex"><rect x="1" width="40" height="24" rx="4" fill="#006FCF"/><path fill-rule="evenodd" clip-rule="evenodd" d="M41.1026 13.0889H39.0166C38.387 13.0889 37.9297 13.2392 37.6059 13.4729V13.0889H34.5203C34.0269 13.0889 33.4477 13.2109 33.1738 13.4729V13.0889H27.6638V13.4729C27.2253 13.1576 26.4854 13.0889 26.1439 13.0889H22.5094V13.4729C22.1625 13.138 21.391 13.0889 20.9208 13.0889H16.8532L15.9224 14.0932L15.0507 13.0889H8.97461V19.6507H14.9363L15.8954 18.6305L16.7989 19.6507L20.4737 19.654V18.1104H20.835C21.3226 18.1179 21.8977 18.0983 22.405 17.8797V19.6506H25.4361V17.9403H25.5823C25.7689 17.9403 25.7873 17.948 25.7873 18.1339V19.6504H34.9951C35.5797 19.6504 36.1908 19.5012 36.5291 19.2305V19.6504H39.4498C40.0576 19.6504 40.6512 19.5655 41.1028 19.3479C41.1028 -16.5536 41.1026 28.1207 41.1026 13.0889Z" fill="#006FCF" stroke="white" stroke-width="0.5"/><path fill-rule="evenodd" clip-rule="evenodd" d="M2.92603 11.5572L3.36028 10.513H4.33247L4.76558 11.5572H8.55491V10.7589L8.89315 11.5607H10.8603L11.1985 10.747V11.5572H20.6157L20.6113 9.84306H20.7935C20.9211 9.84746 20.9584 9.85923 20.9584 10.0692V11.5572H25.829V11.1582C26.2219 11.3681 26.8329 11.5572 27.637 11.5572H29.686L30.1245 10.513H31.0967L31.5256 11.5572H35.4742V10.5653L36.0722 11.5572H39.2364V5H36.1049V5.77442L35.6664 5H32.4531V5.77442L32.0504 5H27.7101C26.9835 5 26.3449 5.10111 25.829 5.38288V5H22.8338V5.38288C22.5055 5.09246 22.0582 5 21.5608 5H10.6181L9.88383 6.69362L9.12983 5H5.68315V5.77442L5.30451 5H2.36505L1 8.11767V11.5572H2.92603Z" fill="#006FCF" stroke="white" stroke-width="0.5"/><path fill-rule="evenodd" clip-rule="evenodd" d="M20.8852 17.1428C21.8704 17.1428 22.848 16.8731 22.848 15.5667C22.848 14.2644 21.843 14.0175 20.9485 14.0175H17.3467L15.913 15.5589L14.5262 14.0175H9.99268V18.7201H14.4575L15.8999 17.1634L17.2879 18.7201H19.4787V17.1428H20.8852ZM19.4787 16.1877H20.9354C21.3685 16.1877 21.6379 15.9735 21.6379 15.5668C21.6379 15.1555 21.3554 14.9902 20.9485 14.9902H19.4787V16.1877ZM13.8868 17.7401H11.1155V16.8045H13.5901V15.845H11.1155V14.99H13.9415L15.1744 16.3605L13.8868 17.7401ZM18.3561 18.2925L16.6255 16.3769L18.3561 14.5222V18.2925Z" fill="white"/><path fill-rule="evenodd" clip-rule="evenodd" d="M27.6686 16.9295C27.5724 16.7925 27.3673 16.627 27.1164 16.5347C27.4131 16.4173 27.9152 16.0343 27.9154 15.2837C27.9154 14.7472 27.6916 14.4537 27.3359 14.2394C26.9659 14.0426 26.5503 14.0175 25.9797 14.0175H23.3773V18.7201H24.5099V17.0026H25.7145C26.1257 17.0026 26.3768 17.0428 26.5415 17.2113C26.7301 17.4081 26.7268 17.7672 26.7243 18.0433C26.724 18.0739 26.7237 18.1035 26.7237 18.1318V18.7201H27.8553V17.7879C27.8508 17.3734 27.8277 17.1591 27.6686 16.9295ZM26.4357 15.9495C26.2849 16.0387 26.0984 16.0464 25.8791 16.0464H24.5098V14.9902H25.8977C26.0984 14.9902 26.2993 14.9944 26.4357 15.0751C26.5818 15.1513 26.6691 15.2969 26.6691 15.4981C26.6691 15.6994 26.5818 15.8614 26.4357 15.9495Z" fill="white"/><path d="M36.6068 16.2399C36.8262 16.4664 36.9438 16.7523 36.9438 17.2363C36.9438 18.2479 36.3099 18.7201 35.1731 18.7201H32.9777V17.7117H35.1643C35.3781 17.7117 35.5297 17.6835 35.6247 17.5953C35.7023 17.5226 35.7579 17.4169 35.7579 17.2886C35.7579 17.1516 35.6977 17.0428 35.6203 16.9776C35.5341 16.9058 35.4152 16.8732 35.2189 16.8732C35.1499 16.8709 35.0798 16.869 35.0089 16.867C33.9976 16.8396 32.8447 16.8084 32.8447 15.4177C32.8447 14.7356 33.2746 14.0176 34.4563 14.0176H36.716V15.0185H34.6483C34.4433 15.0185 34.3101 15.0262 34.1967 15.1034C34.0732 15.1796 34.0274 15.2926 34.0274 15.4418C34.0274 15.6192 34.1323 15.7399 34.2741 15.7921C34.393 15.8333 34.5207 15.8454 34.7127 15.8454L35.3195 15.8617C35.9314 15.8766 36.3514 15.9821 36.6068 16.2399Z" fill="white"/><path d="M41.103 15.0182H39.0487C38.8436 15.0182 38.7073 15.0259 38.5925 15.1031C38.4736 15.1793 38.4278 15.2923 38.4278 15.4415C38.4278 15.6189 38.5282 15.7396 38.6743 15.7918C38.7932 15.833 38.9209 15.8451 39.1087 15.8451L39.7196 15.8614C40.3361 15.8766 40.7475 15.9822 40.9984 16.2399C41.037 16.2702 41.0626 16.3036 41.0885 16.3375L41.0955 16.3467L41.1 16.3525L41.103 16.3563V18.1186C40.8292 18.5178 40.2957 18.7202 39.5734 18.7202H37.3966V17.7117H39.5646C39.7796 17.7117 39.9301 17.6835 40.0207 17.5953C40.0992 17.5226 40.154 17.4169 40.154 17.2886C40.154 17.1516 40.0992 17.0428 40.0163 16.9776C39.9345 16.9058 39.8155 16.8732 39.6192 16.8732C39.5499 16.8709 39.4796 16.869 39.4086 16.8671C38.3937 16.8397 37.2404 16.8085 37.2404 15.4177C37.2404 14.7356 37.6748 14.0176 38.8576 14.0176H41.1029L41.103 15.0182Z" fill="white"/><path d="M28.5404 14.0175H32.3024V14.99H29.6629V15.845H32.2379V16.8044H29.6629V17.7401L32.3024 17.7444V18.7201H28.5404V14.0175Z" fill="white"/><path fill-rule="evenodd" clip-rule="evenodd" d="M4.61491 8.5981L3.84342 6.72381L3.07633 8.5981H4.61491ZM21.6108 7.8518C21.4559 7.94554 21.2727 7.94866 21.0532 7.94866H19.6839V6.90438H21.0719C21.2683 6.90438 21.4732 6.91317 21.6064 6.98918C21.7526 7.05767 21.8431 7.20345 21.8431 7.40482C21.8431 7.6103 21.757 7.77565 21.6108 7.8518ZM31.3793 8.5981L30.5993 6.72381L29.8235 8.5981H31.3793ZM13.1702 10.6268H12.0146L12.0104 6.94462L10.3759 10.6268H9.38624L7.74753 6.94135V10.6268H5.45495L5.02184 9.57815H2.67494L2.23742 10.6268H1.01318L3.03167 5.92529H4.70636L6.62343 10.3767V5.92529H8.46312L9.93826 9.11472L11.2933 5.92529H13.17V10.6268H13.1702ZM17.7757 10.6268H14.0102V5.92529H17.7757V6.90434H15.1375V7.75179H17.7124V8.71553H15.1375V9.65444H17.7757V10.6268ZM23.0848 7.19151C23.0848 7.94111 22.583 8.32839 22.2905 8.44467C22.5372 8.53827 22.7478 8.70361 22.8481 8.8406C23.0073 9.07445 23.0347 9.28333 23.0347 9.70323V10.6268H21.8978L21.8935 10.0339C21.8935 9.75102 21.9207 9.34417 21.7156 9.11798C21.5509 8.95263 21.2998 8.91675 20.894 8.91675H19.684V10.6268H18.557V5.92529H21.1495C21.7256 5.92529 22.15 5.94047 22.5144 6.15049C22.871 6.3605 23.0848 6.6671 23.0848 7.19151ZM24.8886 10.6268H23.7385V5.92529H24.8886V10.6268ZM38.2316 10.6268H36.6343L34.4977 7.09805V10.6268H32.2022L31.7635 9.57815H29.422L28.9964 10.6268H27.6775C27.1296 10.6268 26.4359 10.506 26.043 10.1068C25.6469 9.70762 25.4408 9.1669 25.4408 8.31194C25.4408 7.61466 25.564 6.97723 26.0484 6.47353C26.4128 6.0983 26.9835 5.92529 27.7602 5.92529H28.8515V6.9327H27.7831C27.3718 6.9327 27.1395 6.99368 26.9158 7.21122C26.7236 7.40918 26.5918 7.78342 26.5918 8.2762C26.5918 8.77991 26.6922 9.14308 26.9017 9.38033C27.0752 9.56638 27.3906 9.62282 27.6873 9.62282H28.1935L29.7821 5.92543H31.4711L33.3795 10.3724V5.92543H35.0957L37.077 9.1998V5.92543H38.2316V10.6268Z" fill="white"/></svg>