<svg viewBox="0 0 40 24" fill="none" id="diners"><rect x="0.25" y="0.25" width="39.5" height="23.5" rx="3.75" stroke="#D9DFEB" stroke-width="0.5"/><path fill-rule="evenodd" clip-rule="evenodd" d="M10.3618 12.1605C10.3618 7.55129 14.0983 3.81481 18.7073 3.81481C23.3166 3.81481 27.053 7.55129 27.053 12.1605C27.053 16.7697 23.3166 20.5064 18.7073 20.5064C14.0983 20.5064 10.3618 16.7697 10.3618 12.1605Z" fill="#FFFFFE"/><path fill-rule="evenodd" clip-rule="evenodd" d="M23.7547 11.9962C23.7514 9.859 22.4155 8.03627 20.5331 7.31442V16.6776C22.4155 15.9548 23.7514 14.1338 23.7547 11.9962ZM16.9421 16.6758V7.31541C15.0613 8.0395 13.7275 9.85961 13.7225 11.9963C13.7275 14.1324 15.0613 15.9523 16.9421 16.6758ZM18.7385 4.08212C14.3679 4.0838 10.8269 7.62554 10.8261 11.9962C10.8269 16.3663 14.3679 19.9075 18.7385 19.9082C23.1092 19.9075 26.6509 16.3663 26.6521 11.9962C26.6509 7.62554 23.1092 4.0838 18.7385 4.08212ZM18.7191 20.6551C13.9364 20.6779 10 16.8032 10 12.0865C10 6.93169 13.9364 3.36626 18.7191 3.36719H20.9604C25.6866 3.36626 30 6.93001 30 12.0865C30 16.8015 25.6866 20.6551 20.9604 20.6551H18.7191Z" fill="#0069AA"/></svg>