<svg viewBox="0 0 34 24" fill="none" id="mastercard"><rect width="34" height="24" rx="4" fill="#252525"/><g clip-path="url(#clip0_151_4013)"><path d="M29.7524 16.8692V16.5607H29.6711L29.5771 16.7724L29.4837 16.5607H29.4021V16.8692H29.4599V16.6368L29.5477 16.8373H29.6075L29.6954 16.6362V16.8692H29.7526H29.7524ZM29.2369 16.8692V16.6135H29.3409V16.5614H29.0752V16.6135H29.1792V16.8692H29.2364H29.2369Z" fill="#F79410"/><path d="M20.5175 18.1923H13.4863V5.69873H20.5176L20.5175 18.1923Z" fill="#FF5F00"/><path d="M13.932 11.9456C13.932 9.41132 15.1322 7.15374 17.001 5.69885C15.5864 4.59596 13.8367 3.99738 12.0352 4.00001C7.59736 4.00001 4 7.55733 4 11.9456C4 16.3339 7.59736 19.8913 12.0352 19.8913C13.8367 19.8939 15.5865 19.2954 17.0012 18.1924C15.1324 16.7378 13.932 14.4801 13.932 11.9456Z" fill="#EB001B"/><path d="M30.0033 11.9458C30.0033 16.3341 26.4059 19.8914 21.9681 19.8914C20.1664 19.894 18.4164 19.2955 17.0015 18.1926C18.8709 16.7377 20.071 14.4802 20.071 11.9458C20.071 9.41133 18.8709 7.15387 17.0015 5.69899C18.4164 4.59613 20.1663 3.99756 21.968 4.00015C26.4058 4.00015 30.0032 7.55747 30.0032 11.9458" fill="#F79E1B"/></g><defs><clipPath id="clip0_151_4013"><rect width="26" height="16" fill="white" transform="translate(4 4)"/></clipPath></defs></svg>