<svg viewBox="0 0 40 24" fill="none" id="visa"><rect x="0.25" y="0.25" width="39.5" height="23.5" rx="3.75" stroke="#D9DFEB" stroke-width="0.5"/><g clip-path="url(#clip0_151_4014)"><path d="M24.8428 7.01219C22.5706 7.01219 20.5402 8.14528 20.5402 10.2388C20.5402 12.6396 24.1413 12.8054 24.1413 14.0115C24.1413 14.5193 23.5364 14.9739 22.5033 14.9739C21.0371 14.9739 19.9412 14.3387 19.9412 14.3387L19.4723 16.4512C19.4723 16.4512 20.7347 16.9878 22.4108 16.9878C24.8949 16.9878 26.8496 15.7991 26.8496 13.6698C26.8496 11.1329 23.2335 10.972 23.2335 9.85259C23.2335 9.45472 23.7301 9.01885 24.7602 9.01885C25.9226 9.01885 26.8709 9.48082 26.8709 9.48082L27.3298 7.44048C27.3298 7.44048 26.2979 7.01219 24.8428 7.01219ZM4.05503 7.16619L4 7.47417C4 7.47417 4.9559 7.64247 5.81682 7.97824C6.92533 8.36323 7.00432 8.58738 7.191 9.28352L9.22535 16.829H11.9525L16.1538 7.16619H13.433L10.7334 13.736L9.63178 8.1671C9.53075 7.52977 9.019 7.16619 8.39262 7.16619H4.05503ZM17.2479 7.16619L15.1135 16.829H17.708L19.835 7.16616H17.2479V7.16619ZM31.7187 7.16619C31.093 7.16619 30.7615 7.48847 30.5183 8.05162L26.7171 16.829H29.438L29.9644 15.3661H33.2791L33.5993 16.829H36L33.9056 7.16619H31.7187ZM32.0725 9.77678L32.879 13.4027H30.7183L32.0725 9.77678Z" fill="#1434CB"/></g><defs><clipPath id="clip0_151_4014"><rect width="32" height="10" fill="white" transform="translate(4 7)"/></clipPath></defs></svg>