<svg viewBox="0 0 24 24" fill="none" id="chart-b"><path class="path-0" d="M4.6 10.38H3C2.45 10.38 2 10.83 2 11.38V20C2 20.55 2.45 21 3 21H4.6C5.15 21 5.6 20.55 5.6 20V11.38C5.6 10.82 5.15 10.38 4.6 10.38Z" fill="#050A1F"/><path class="path-1" d="M9.8002 7.19H8.2002C7.6502 7.19 7.2002 7.64 7.2002 8.19V20C7.2002 20.55 7.6502 21 8.2002 21H9.8002C10.3502 21 10.8002 20.55 10.8002 20V8.19C10.8002 7.64 10.3502 7.19 9.8002 7.19Z" fill="#050A1F"/><path class="path-2" d="M14.9999 4H13.3999C12.8499 4 12.3999 4.45 12.3999 5V20C12.3999 20.55 12.8499 21 13.3999 21H14.9999C15.5499 21 15.9999 20.55 15.9999 20V5C15.9999 4.45 15.5499 4 14.9999 4Z" fill="#050A1F"/><path class="path-3" d="M20.6 2H19C18.45 2 18 2.50294 18 3.11765V19.8824C18 20.4971 18.45 21 19 21H20.6C21.15 21 21.6 20.4971 21.6 19.8824V3.11765C21.6 2.50294 21.15 2 20.6 2Z" fill="#050A1F"/></svg>