<svg viewBox="0 0 16 16" fill="none" id="copy"><path d="M11.332 8.93341V10.9334C11.332 13.6001 10.2654 14.6667 7.5987 14.6667H5.06536C2.3987 14.6667 1.33203 13.6001 1.33203 10.9334V8.40008C1.33203 5.73341 2.3987 4.66675 5.06536 4.66675H7.06537" stroke="#050A1F" stroke-width="1.5" stroke-linecap="round" stroke-linejoin="round"/><path d="M11.3331 8.93341H9.19974C7.59974 8.93341 7.06641 8.40008 7.06641 6.80008V4.66675L11.3331 8.93341Z" stroke="#050A1F" stroke-width="1.5" stroke-linecap="round" stroke-linejoin="round"/><path d="M7.73438 1.33325H10.401" stroke="#050A1F" stroke-width="1.5" stroke-linecap="round" stroke-linejoin="round"/><path d="M4.66797 3.33325C4.66797 2.22659 5.5613 1.33325 6.66797 1.33325H8.41464" stroke="#050A1F" stroke-width="1.5" stroke-linecap="round" stroke-linejoin="round"/><path d="M14.6663 5.33325V9.45992C14.6663 10.4933 13.8263 11.3333 12.793 11.3333" stroke="#050A1F" stroke-width="1.5" stroke-linecap="round" stroke-linejoin="round"/><path d="M14.668 5.33325H12.668C11.168 5.33325 10.668 4.83325 10.668 3.33325V1.33325L14.668 5.33325Z" stroke="#050A1F" stroke-width="1.5" stroke-linecap="round" stroke-linejoin="round"/></svg>