<svg viewBox="0 0 57 56" fill="none" id="heart-circle"><path d="M28.4998 51.3337C41.3865 51.3337 51.8332 40.887 51.8332 28.0003C51.8332 15.1137 41.3865 4.66699 28.4998 4.66699C15.6132 4.66699 5.1665 15.1137 5.1665 28.0003C5.1665 40.887 15.6132 51.3337 28.4998 51.3337Z" stroke="#FF8289" stroke-width="1.5" stroke-linecap="round" stroke-linejoin="round"/><path d="M29.2699 40.7168C28.8499 40.8568 28.1266 40.8568 27.7066 40.7168C24.0666 39.4801 15.8999 34.2768 15.8999 25.4568C15.8999 21.5601 19.0266 18.4102 22.8999 18.4102C25.1866 18.4102 27.2166 19.5068 28.4999 21.2335C29.7599 19.5301 31.8132 18.4102 34.0999 18.4102C37.9732 18.4102 41.0999 21.5601 41.0999 25.4568C41.0999 34.2768 32.9332 39.4801 29.2699 40.7168Z" stroke="#FF8289" stroke-width="1.5" stroke-linecap="round" stroke-linejoin="round"/></svg>