<svg viewBox="0 0 16 16" fill="none" id="import words"><path d="M6.66536 3.99992H9.33203C10.6654 3.99992 10.6654 3.33325 10.6654 2.66659C10.6654 1.33325 9.9987 1.33325 9.33203 1.33325H6.66536C5.9987 1.33325 5.33203 1.33325 5.33203 2.66659C5.33203 3.99992 5.9987 3.99992 6.66536 3.99992Z" stroke="#050A1F" stroke-width="1.5" stroke-miterlimit="10" stroke-linecap="round" stroke-linejoin="round"/><path d="M9.33333 14.6666H6C2.66667 14.6666 2 13.3333 2 10.6666V6.6666C2 3.6266 3.11333 2.79993 5.33333 2.67993" stroke="#050A1F" stroke-width="1.5" stroke-miterlimit="10" stroke-linecap="round" stroke-linejoin="round"/><path d="M10.668 2.67993C12.888 2.79993 14.0013 3.61993 14.0013 6.6666V9.99993" stroke="#050A1F" stroke-width="1.5" stroke-miterlimit="10" stroke-linecap="round" stroke-linejoin="round"/><path d="M14 12.6667V14.6667H12" stroke="#050A1F" stroke-width="1.5" stroke-miterlimit="10" stroke-linecap="round" stroke-linejoin="round"/><path d="M10 10.6667L13.9733 14.6401" stroke="#050A1F" stroke-width="1.5" stroke-miterlimit="10" stroke-linecap="round" stroke-linejoin="round"/><path d="M6 6.66675L10 6.66675" stroke="#050A1F" stroke-width="1.5" stroke-linecap="round" stroke-linejoin="round"/><path d="M6 8.66675L10 8.66675" stroke="#050A1F" stroke-width="1.5" stroke-linecap="round" stroke-linejoin="round"/><path d="M6 10.6667L8.66667 10.6667" stroke="#050A1F" stroke-width="1.5" stroke-linecap="round" stroke-linejoin="round"/></svg>