<svg viewBox="0 0 24 24" fill="none" id="pause1"><path fill-rule="evenodd" clip-rule="evenodd" d="M24 12C24 18.6274 18.6274 24 12 24C5.37258 24 0 18.6274 0 12C0 5.37258 5.37258 0 12 0C18.6274 0 24 5.37258 24 12ZM11 8.05C11 7.3 10.702 7 9.94902 7H8.05098C7.29804 7 7 7.3 7 8.05V15.95C7 16.7 7.29804 17 8.05098 17H9.94902C10.702 17 11 16.7 11 15.95V8.05ZM15.949 7C16.702 7 17 7.3 17 8.05V15.95C17 16.7 16.702 17 15.949 17H14.051C13.298 17 13 16.7 13 15.95V8.05C13 7.3 13.3033 7 14.051 7H15.949Z" fill="#050A1F"/></svg>