<svg viewBox="0 0 24 26" fill="none" id="surprise box"><circle cx="12" cy="11" r="4.25" stroke="#050A1F" stroke-width="1.5"/><circle cx="10.5" cy="9.5" r="0.5" fill="#050A1F"/><circle cx="13.5" cy="9.5" r="0.5" fill="#050A1F"/><path d="M10.5 11C10.7857 11.3333 11.3143 12 12 12C12.6857 12 13.3571 11.3333 13.5 11" stroke="#050A1F" stroke-width="1.5"/><path d="M1 9C2 9.16667 4 10.1 4 12.5" stroke="#050A1F" stroke-width="1.5"/><path d="M5 2C6 2.16667 8 3.1 8 5.5" stroke="#050A1F" stroke-width="1.5"/><path d="M13 5.5C13.1629 4.68541 13.6762 3.07454 14.4464 3.0025C14.4797 2.99939 14.511 2.98336 14.5299 2.95583C14.8829 2.44352 15.7229 1.5 16.5 1.5" stroke="#050A1F" stroke-width="1.5"/><path d="M15.6114 14.5H3.60292C3.53833 14.5 3.47772 14.5312 3.44018 14.5838L1.22589 17.6838C1.13134 17.8161 1.22596 18 1.38864 18H13.3971C13.4617 18 13.5223 17.9688 13.5598 17.9162L15.7741 14.8162C15.8687 14.6839 15.774 14.5 15.6114 14.5Z" stroke="#050A1F" stroke-width="1.5"/><path d="M22.9145 17.8504L21.0288 14.5504C21.011 14.5192 20.9779 14.5 20.942 14.5H15.6943C15.613 14.5 15.5657 14.5919 15.6129 14.6581L17.9701 17.9581C17.9889 17.9844 18.0192 18 18.0515 18H22.8277C22.9045 18 22.9526 17.9171 22.9145 17.8504Z" stroke="#050A1F" stroke-width="1.5"/><path d="M4 24.4V18H13.4532C13.4828 18 13.511 17.9868 13.53 17.964L15.8232 15.2122C15.8831 15.1403 16 15.1827 16 15.2762V24.5H4.1C4.04477 24.5 4 24.4552 4 24.4Z" stroke="#050A1F" stroke-width="1.5"/><path d="M8.4 20H4.1C4.04477 20 4 20.0448 4 20.1V22.4C4 22.4552 4.04477 22.5 4.1 22.5H8.4C8.45523 22.5 8.5 22.4552 8.5 22.4V20.1C8.5 20.0448 8.45523 20 8.4 20Z" stroke="#050A1F" stroke-width="1.5"/><path d="M20.5 24.4V18H18.0535C18.0201 18 17.9889 17.9833 17.9703 17.9555L16 15V24.5H20.4C20.4552 24.5 20.5 24.4552 20.5 24.4Z" stroke="#050A1F" stroke-width="1.5"/><circle cx="2.5" cy="5.5" r="0.5" fill="#050A1F"/><circle cx="4.5" cy="6.5" r="0.5" fill="#050A1F"/><circle cx="5.5" cy="7.5" r="0.5" fill="#050A1F"/><circle cx="15" cy="4" r="1" fill="#050A1F"/><path d="M21 3.5C20 3.33333 18 3.6 18 6" stroke="#050A1F" stroke-width="1.5"/><circle cx="5.5" cy="9.5" r="0.5" fill="#050A1F"/><path d="M23.5 7.5C22.1667 7.5 19.5 8.5 19.5 12.5" stroke="#050A1F" stroke-width="1.5"/></svg>