<svg xmlns="http://www.w3.org/2000/svg" xmlns:xlink="http://www.w3.org/1999/xlink">
<svg viewBox="0 0 24 24" fill="none" id="24-support"><path d="M18 18.86H17.24C16.44 18.86 15.68 19.17 15.12 19.73L13.41 21.42C12.63 22.19 11.36 22.19 10.58 21.42L8.87 19.73C8.31 19.17 7.54 18.86 6.75 18.86H6C4.34 18.86 3 17.53 3 15.89V4.97998C3 3.33998 4.34 2.01001 6 2.01001H18C19.66 2.01001 21 3.33998 21 4.97998V15.89C21 17.52 19.66 18.86 18 18.86Z" stroke="currentColor" stroke-width="1.5" stroke-miterlimit="10" stroke-linecap="round" stroke-linejoin="round"/><path d="M7 9.16003C7 8.23003 7.76 7.46997 8.69 7.46997C9.62 7.46997 10.38 8.23003 10.38 9.16003C10.38 11.04 7.71 11.24 7.12 13.03C7 13.4 7.31 13.77 7.7 13.77H10.38" stroke="currentColor" stroke-width="1.5" stroke-linecap="round" stroke-linejoin="round"/><path d="M16.0398 13.76V8.05003C16.0398 7.79003 15.8698 7.55997 15.6198 7.48997C15.3698 7.41997 15.0998 7.51997 14.9598 7.73997C14.2398 8.89997 13.4598 10.22 12.7798 11.38C12.6698 11.57 12.6698 11.82 12.7798 12.01C12.8898 12.2 13.0998 12.3199 13.3298 12.3199H16.9998" stroke="currentColor" stroke-width="1.5" stroke-linecap="round" stroke-linejoin="round"/></svg>
<svg viewBox="0 0 32 32" fill="none" id="Cursor"><g filter="url(#filter0_d_296_6240)"><path fill-rule="evenodd" clip-rule="evenodd" d="M5.08116 6.39064L13.0743 25.3896C13.4183 26.2073 14.5775 26.2055 14.919 25.3868L16.7513 20.9939L20.8787 25.1213C22.0503 26.2929 23.9498 26.2929 25.1214 25.1213C26.2929 23.9497 26.2929 22.0503 25.1214 20.8787L20.9939 16.7512L25.3868 14.9189C26.2055 14.5775 26.2073 13.4183 25.3897 13.0743L6.39071 5.0811C5.56459 4.73353 4.7336 5.56452 5.08116 6.39064Z" fill="currentColor"/></g><path fill-rule="evenodd" clip-rule="evenodd" d="M16.0546 17.4688L22.2929 23.7071C22.6835 24.0976 23.3166 24.0976 23.7072 23.7071C24.0977 23.3166 24.0977 22.6834 23.7072 22.2929L17.4688 16.0546L22.4137 13.992L7.87574 7.87567L13.9921 22.4137L16.0546 17.4688ZM25.3868 14.9189C26.2055 14.5775 26.2073 13.4183 25.3897 13.0743L6.39071 5.0811C5.56459 4.73353 4.7336 5.56452 5.08116 6.39064L13.0743 25.3896C13.4183 26.2073 14.5775 26.2055 14.919 25.3868L16.7513 20.9939L20.8787 25.1213C22.0503 26.2929 23.9498 26.2929 25.1214 25.1213C26.2929 23.9497 26.2929 22.0503 25.1214 20.8787L20.9939 16.7512L25.3868 14.9189Z" fill="white"/><defs><filter id="filter0_d_296_6240" x="2" y="3.49993" width="27.002" height="27.0019" filterUnits="userSpaceOnUse" color-interpolation-filters="sRGB"><feFlood flood-opacity="0" result="BackgroundImageFix"/><feColorMatrix in="SourceAlpha" type="matrix" values="0 0 0 0 0 0 0 0 0 0 0 0 0 0 0 0 0 0 127 0" result="hardAlpha"/><feOffset dy="1.5"/><feGaussianBlur stdDeviation="1.5"/><feComposite in2="hardAlpha" operator="out"/><feColorMatrix type="matrix" values="0 0 0 0 0.0705882 0 0 0 0 0.0745098 0 0 0 0 0.101961 0 0 0 0.25 0"/><feBlend mode="normal" in2="BackgroundImageFix" result="effect1_dropShadow_296_6240"/><feBlend mode="normal" in="SourceGraphic" in2="effect1_dropShadow_296_6240" result="shape"/></filter></defs></svg>
<svg viewBox="0 0 24 24" fill="none" id="Level"><path d="M4 19H20M12 15C14.2091 15 16 16.7909 16 19M12 15C9.79086 15 8 16.7909 8 19M12 15L10 10M4 12H5M19 12H20M12 4V5M17.5 6.5L16.5 7.5M6.5 6.5L7.5 7.5M23 12C23 18.0751 18.0751 23 12 23C5.92487 23 1 18.0751 1 12C1 5.92487 5.92487 1 12 1C18.0751 1 23 5.92487 23 12Z" stroke="currentColor" stroke-width="1.5" stroke-linecap="round"/></svg>
<svg viewBox="0 0 32 35" fill="none" id="Pointing Hand"><g filter="url(#filter0_d_479_14248)"><path fill-rule="evenodd" clip-rule="evenodd" d="M12 2C10.3431 2 9 3.34315 9 5V12.1C6.71776 12.5633 5 14.581 5 17V20.0772C5 21.5362 5.45586 22.9587 6.30387 24.1459L9.28892 28.325C10.0398 29.3761 11.252 30 12.5439 30H20.259C21.6945 30 23.0198 29.2309 23.732 27.9846L26.0777 23.8796C26.6821 22.8219 27 21.6248 27 20.4066V17C27 14.3194 24.8906 12.1316 22.2412 12.0057C21.6917 11.3886 20.8913 11 20 11C19.4653 11 18.9634 11.1399 18.5286 11.385C17.9956 10.5521 17.0623 10 16 10C15.6494 10 15.3128 10.0602 15 10.1707V5C15 3.34315 13.6569 2 12 2Z" fill="white"/></g><path fill-rule="evenodd" clip-rule="evenodd" d="M12 2C10.3431 2 9 3.34315 9 5V12.1C6.71776 12.5633 5 14.581 5 17V20.0772C5 21.5362 5.45586 22.9587 6.30387 24.1459L9.28892 28.325C10.0398 29.3761 11.252 30 12.5439 30H20.259C21.6945 30 23.0198 29.2309 23.732 27.9846L26.0777 23.8796C26.6821 22.8219 27 21.6248 27 20.4066V17C27 14.3194 24.8906 12.1316 22.2412 12.0057C21.6917 11.3886 20.8913 11 20 11C19.4653 11 18.9634 11.1399 18.5286 11.385C17.9956 10.5521 17.0623 10 16 10C15.6494 10 15.3128 10.0602 15 10.1707V5C15 3.34315 13.6569 2 12 2ZM15 13C15 13.5523 14.5523 14 14 14C13.4477 14 13 13.5523 13 13V5C13 4.44772 12.5523 4 12 4C11.4477 4 11 4.44772 11 5V18C11 18.5523 10.5523 19 10 19C9.44772 19 9 18.5523 9 18V14.1707C7.83481 14.5825 7 15.6938 7 17V20.0772C7 21.1193 7.32562 22.1354 7.93133 22.9834L10.9164 27.1625C11.2918 27.6881 11.898 28 12.5439 28H20.259C20.9767 28 21.6394 27.6154 21.9955 26.9923L24.3412 22.8873C24.7729 22.1318 25 21.2767 25 20.4066V17C25 15.6938 24.1652 14.5825 23 14.1707V15C23 15.5523 22.5523 16 22 16C21.4477 16 21 15.5523 21 15V14C21 13.4477 20.5523 13 20 13C19.4477 13 19 13.4477 19 14C19 14.5523 18.5523 15 18 15C17.4477 15 17 14.5523 17 14V13C17 12.4477 16.5523 12 16 12C15.4477 12 15 12.4477 15 13Z" fill="currentColor"/><defs><filter id="filter0_d_479_14248" x="2" y="0.5" width="28" height="34" filterUnits="userSpaceOnUse" color-interpolation-filters="sRGB"><feFlood flood-opacity="0" result="BackgroundImageFix"/><feColorMatrix in="SourceAlpha" type="matrix" values="0 0 0 0 0 0 0 0 0 0 0 0 0 0 0 0 0 0 127 0" result="hardAlpha"/><feOffset dy="1.5"/><feGaussianBlur stdDeviation="1.5"/><feComposite in2="hardAlpha" operator="out"/><feColorMatrix type="matrix" values="0 0 0 0 0.0705882 0 0 0 0 0.0745098 0 0 0 0 0.101961 0 0 0 0.25 0"/><feBlend mode="normal" in2="BackgroundImageFix" result="effect1_dropShadow_479_14248"/><feBlend mode="normal" in="SourceGraphic" in2="effect1_dropShadow_479_14248" result="shape"/></filter></defs></svg>
<svg viewBox="0 0 24 24" fill="none" id="add"><path d="M6 12H18" stroke="currentColor" stroke-width="1.5" stroke-linecap="round" stroke-linejoin="round"/><path d="M12 18V6" stroke="currentColor" stroke-width="1.5" stroke-linecap="round" stroke-linejoin="round"/></svg>
<svg viewBox="0 0 24 24" fill="none" id="affiliate"><path d="M18.0001 7.16C17.9401 7.15 17.8701 7.15 17.8101 7.16C16.4301 7.11 15.3301 5.98 15.3301 4.58C15.3301 3.15 16.4801 2 17.9101 2C19.3401 2 20.4901 3.16 20.4901 4.58C20.4801 5.98 19.3801 7.11 18.0001 7.16Z" stroke="currentColor" stroke-width="1.5" stroke-linecap="round" stroke-linejoin="round"/><path d="M16.9699 14.44C18.3399 14.67 19.8499 14.43 20.9099 13.72C22.3199 12.78 22.3199 11.24 20.9099 10.3C19.8399 9.59001 18.3099 9.35 16.9399 9.59" stroke="currentColor" stroke-width="1.5" stroke-linecap="round" stroke-linejoin="round"/><path d="M5.96998 7.16C6.02998 7.15 6.09998 7.15 6.15998 7.16C7.53998 7.11 8.63998 5.98 8.63998 4.58C8.63998 3.15 7.48998 2 6.05998 2C4.62998 2 3.47998 3.16 3.47998 4.58C3.48998 5.98 4.58998 7.11 5.96998 7.16Z" stroke="currentColor" stroke-width="1.5" stroke-linecap="round" stroke-linejoin="round"/><path d="M6.99994 14.44C5.62994 14.67 4.11994 14.43 3.05994 13.72C1.64994 12.78 1.64994 11.24 3.05994 10.3C4.12994 9.59001 5.65994 9.35 7.02994 9.59" stroke="currentColor" stroke-width="1.5" stroke-linecap="round" stroke-linejoin="round"/><path d="M12.0001 14.63C11.9401 14.62 11.8701 14.62 11.8101 14.63C10.4301 14.58 9.33008 13.45 9.33008 12.05C9.33008 10.62 10.4801 9.47 11.9101 9.47C13.3401 9.47 14.4901 10.63 14.4901 12.05C14.4801 13.45 13.3801 14.59 12.0001 14.63Z" stroke="currentColor" stroke-width="1.5" stroke-linecap="round" stroke-linejoin="round"/><path d="M9.09021 17.78C7.68021 18.72 7.68021 20.26 9.09021 21.2C10.6902 22.27 13.3102 22.27 14.9102 21.2C16.3202 20.26 16.3202 18.72 14.9102 17.78C13.3202 16.72 10.6902 16.72 9.09021 17.78Z" stroke="currentColor" stroke-width="1.5" stroke-linecap="round" stroke-linejoin="round"/></svg>
<svg viewBox="0 0 24 24" fill="none" id="arrow-down"><path d="M19.9201 8.95L13.4001 15.47C12.6301 16.24 11.3701 16.24 10.6001 15.47L4.08008 8.95" stroke="currentColor" stroke-width="1.5" stroke-miterlimit="10" stroke-linecap="round" stroke-linejoin="round"/></svg>
<svg viewBox="0 0 24 24" fill="none" id="arrow-left-1"><g id="arrow-left_1"><g id="arrow-left_2"><path id="Vector" d="M14.9998 19.92L8.47984 13.4C7.70984 12.63 7.70984 11.37 8.47984 10.6L14.9998 4.08" stroke="currentColor" stroke-width="1.5" stroke-miterlimit="10" stroke-linecap="round" stroke-linejoin="round"/></g></g></svg>
<svg viewBox="0 0 24 24" fill="none" id="arrow-left"><path d="M9.57 5.93L3.5 12L9.57 18.07" stroke="currentColor" stroke-width="1.5" stroke-miterlimit="10" stroke-linecap="round" stroke-linejoin="round"/><path d="M20.4999 12H3.66992" stroke="currentColor" stroke-width="1.5" stroke-miterlimit="10" stroke-linecap="round" stroke-linejoin="round"/></svg>
<svg viewBox="0 0 24 24" fill="none" id="arrow-right-1"><path d="M14.4302 5.93L20.5002 12L14.4302 18.07" stroke="currentColor" stroke-width="1.5" stroke-miterlimit="10" stroke-linecap="round" stroke-linejoin="round"/><path d="M3.5 12H20.33" stroke="currentColor" stroke-width="1.5" stroke-miterlimit="10" stroke-linecap="round" stroke-linejoin="round"/></svg>
<svg viewBox="0 0 24 24" fill="none" id="arrow-right"><path d="M8.91016 19.92L15.4302 13.4C16.2002 12.63 16.2002 11.37 15.4302 10.6L8.91016 4.08" stroke="currentColor" stroke-width="1.5" stroke-miterlimit="10" stroke-linecap="round" stroke-linejoin="round"/></svg>
<svg viewBox="0 0 24 24" fill="none" id="arrow=up"><path d="M19.9201 15.05L13.4001 8.53C12.6301 7.76 11.3701 7.76 10.6001 8.53L4.08008 15.05" stroke="currentColor" stroke-width="1.5" stroke-miterlimit="10" stroke-linecap="round" stroke-linejoin="round"/></svg>
<svg viewBox="0 0 24 24" fill="none" id="calendar"><path d="M8 2V5" stroke="currentColor" stroke-width="1.5" stroke-miterlimit="10" stroke-linecap="round" stroke-linejoin="round"/><path d="M16 2V5" stroke="currentColor" stroke-width="1.5" stroke-miterlimit="10" stroke-linecap="round" stroke-linejoin="round"/><path d="M3.5 9.09H20.5" stroke="currentColor" stroke-width="1.5" stroke-miterlimit="10" stroke-linecap="round" stroke-linejoin="round"/><path d="M21 8.5V17C21 20 19.5 22 16 22H8C4.5 22 3 20 3 17V8.5C3 5.5 4.5 3.5 8 3.5H16C19.5 3.5 21 5.5 21 8.5Z" stroke="currentColor" stroke-width="1.5" stroke-miterlimit="10" stroke-linecap="round" stroke-linejoin="round"/><path d="M15.6947 13.7H15.7037" stroke="currentColor" stroke-width="2" stroke-linecap="round" stroke-linejoin="round"/><path d="M15.6947 16.7H15.7037" stroke="currentColor" stroke-width="2" stroke-linecap="round" stroke-linejoin="round"/><path d="M11.9955 13.7H12.0045" stroke="currentColor" stroke-width="2" stroke-linecap="round" stroke-linejoin="round"/><path d="M11.9955 16.7H12.0045" stroke="currentColor" stroke-width="2" stroke-linecap="round" stroke-linejoin="round"/><path d="M8.29431 13.7H8.30329" stroke="currentColor" stroke-width="2" stroke-linecap="round" stroke-linejoin="round"/><path d="M8.29431 16.7H8.30329" stroke="currentColor" stroke-width="2" stroke-linecap="round" stroke-linejoin="round"/></svg>
<svg viewBox="0 0 24 24" fill="none" id="caret_down"><path d="M12 14.5L17 9.5H7L12 14.5Z" fill="currentColor"/></svg>
<svg viewBox="0 0 24 24" fill="none" id="chart-b"><path class="path-0" d="M4.6 10.38H3C2.45 10.38 2 10.83 2 11.38V20C2 20.55 2.45 21 3 21H4.6C5.15 21 5.6 20.55 5.6 20V11.38C5.6 10.82 5.15 10.38 4.6 10.38Z" fill="currentColor"/><path class="path-1" d="M9.8002 7.19H8.2002C7.6502 7.19 7.2002 7.64 7.2002 8.19V20C7.2002 20.55 7.6502 21 8.2002 21H9.8002C10.3502 21 10.8002 20.55 10.8002 20V8.19C10.8002 7.64 10.3502 7.19 9.8002 7.19Z" fill="currentColor"/><path class="path-2" d="M14.9999 4H13.3999C12.8499 4 12.3999 4.45 12.3999 5V20C12.3999 20.55 12.8499 21 13.3999 21H14.9999C15.5499 21 15.9999 20.55 15.9999 20V5C15.9999 4.45 15.5499 4 14.9999 4Z" fill="currentColor"/><path class="path-3" d="M20.6 2H19C18.45 2 18 2.50294 18 3.11765V19.8824C18 20.4971 18.45 21 19 21H20.6C21.15 21 21.6 20.4971 21.6 19.8824V3.11765C21.6 2.50294 21.15 2 20.6 2Z" fill="currentColor"/></svg>
<svg viewBox="0 0 24 24" fill="none" id="check"><path d="M9.68493 17.2C9.44493 17.2 9.22491 17.12 9.04491 16.94L5.06493 12.96C4.70493 12.6 4.70493 12.04 5.06493 11.68C5.42493 11.32 5.98491 11.32 6.34491 11.68L9.70492 15.02L17.6849 7.05999C18.0449 6.69999 18.6049 6.69999 18.9649 7.05999C19.3249 7.41999 19.3249 7.98 18.9649 8.34L10.3449 16.94C10.1449 17.12 9.92493 17.2 9.68493 17.2Z" fill="currentColor"/></svg>
<svg viewBox="0 0 16 16" fill="none" id="close-default"><path d="M4 12L12 4" stroke="currentColor" stroke-width="1.5" stroke-linecap="round" stroke-linejoin="round"/><path d="M12 12L4 4" stroke="currentColor" stroke-width="1.5" stroke-linecap="round" stroke-linejoin="round"/></svg>
<svg viewBox="0 0 24 24" fill="none" id="close-thin"><path id="Vector" d="M6 18L18 6" stroke="currentColor" stroke-width="1.125" stroke-linecap="round" stroke-linejoin="round"/><path id="Vector_2" d="M18 18L6 6" stroke="currentColor" stroke-width="1.125" stroke-linecap="round" stroke-linejoin="round"/></svg>
<svg viewBox="0 0 16 16" fill="none" id="copy"><path d="M11.332 8.93341V10.9334C11.332 13.6001 10.2654 14.6667 7.5987 14.6667H5.06536C2.3987 14.6667 1.33203 13.6001 1.33203 10.9334V8.40008C1.33203 5.73341 2.3987 4.66675 5.06536 4.66675H7.06537" stroke="currentColor" stroke-width="1.5" stroke-linecap="round" stroke-linejoin="round"/><path d="M11.3331 8.93341H9.19974C7.59974 8.93341 7.06641 8.40008 7.06641 6.80008V4.66675L11.3331 8.93341Z" stroke="currentColor" stroke-width="1.5" stroke-linecap="round" stroke-linejoin="round"/><path d="M7.73438 1.33325H10.401" stroke="currentColor" stroke-width="1.5" stroke-linecap="round" stroke-linejoin="round"/><path d="M4.66797 3.33325C4.66797 2.22659 5.5613 1.33325 6.66797 1.33325H8.41464" stroke="currentColor" stroke-width="1.5" stroke-linecap="round" stroke-linejoin="round"/><path d="M14.6663 5.33325V9.45992C14.6663 10.4933 13.8263 11.3333 12.793 11.3333" stroke="currentColor" stroke-width="1.5" stroke-linecap="round" stroke-linejoin="round"/><path d="M14.668 5.33325H12.668C11.168 5.33325 10.668 4.83325 10.668 3.33325V1.33325L14.668 5.33325Z" stroke="currentColor" stroke-width="1.5" stroke-linecap="round" stroke-linejoin="round"/></svg>
<svg viewBox="0 0 24 24" fill="none" id="danger"><path d="M12 9V14" stroke="currentColor" stroke-width="1.5" stroke-linecap="round" stroke-linejoin="round"/><path d="M11.9999 21.41H5.93993C2.46993 21.41 1.01993 18.93 2.69993 15.9L5.81993 10.28L8.75993 5C10.5399 1.79 13.4599 1.79 15.2399 5L18.1799 10.29L21.2999 15.91C22.9799 18.94 21.5199 21.42 18.0599 21.42H11.9999V21.41Z" stroke="currentColor" stroke-width="1.5" stroke-linecap="round" stroke-linejoin="round"/><path d="M11.9946 17H12.0036" stroke="currentColor" stroke-width="2" stroke-linecap="round" stroke-linejoin="round"/></svg>
<svg viewBox="0 0 24 24" fill="none" id="down arrow"><path d="M17.0002 9.17C16.8128 8.98375 16.5594 8.87921 16.2952 8.87921C16.031 8.87921 15.7776 8.98375 15.5902 9.17L12.0002 12.71L8.46019 9.17C8.27283 8.98375 8.01938 8.87921 7.75519 8.87921C7.49101 8.87921 7.23756 8.98375 7.05019 9.17C6.95646 9.26296 6.88207 9.37356 6.8313 9.49542C6.78053 9.61728 6.75439 9.74799 6.75439 9.88C6.75439 10.012 6.78053 10.1427 6.8313 10.2646C6.88207 10.3864 6.95646 10.497 7.05019 10.59L11.2902 14.83C11.3832 14.9237 11.4938 14.9981 11.6156 15.0489C11.7375 15.0997 11.8682 15.1258 12.0002 15.1258C12.1322 15.1258 12.2629 15.0997 12.3848 15.0489C12.5066 14.9981 12.6172 14.9237 12.7102 14.83L17.0002 10.59C17.0939 10.497 17.1683 10.3864 17.2191 10.2646C17.2699 10.1427 17.296 10.012 17.296 9.88C17.296 9.74799 17.2699 9.61728 17.2191 9.49542C17.1683 9.37356 17.0939 9.26296 17.0002 9.17Z" fill="black"/></svg>
<svg viewBox="0 0 24 24" fill="none" id="drag"><path d="M10 5.5L11.6096 3.48804C11.8097 3.23784 12.1903 3.23784 12.3904 3.48804L14 5.5" stroke="currentColor" stroke-width="1.5" stroke-linecap="round"/><path d="M5 10.5H19" stroke="currentColor" stroke-width="1.5" stroke-linecap="round"/><path d="M5 14.5H19" stroke="currentColor" stroke-width="1.5" stroke-linecap="round"/><path d="M10 19.5L11.6464 21.1464C11.8417 21.3417 12.1583 21.3417 12.3536 21.1464L14 19.5" stroke="currentColor" stroke-width="1.5" stroke-linecap="round"/></svg>
<svg viewBox="0 0 24 24" fill="none" id="edit"><path d="M11 2H9C4 2 2 4 2 9V15C2 20 4 22 9 22H15C20 22 22 20 22 15V13" stroke="currentColor" stroke-width="1.5" stroke-linecap="round" stroke-linejoin="round"/><path d="M16.0399 3.02L8.15988 10.9C7.85988 11.2 7.55988 11.79 7.49988 12.22L7.06988 15.23C6.90988 16.32 7.67988 17.08 8.76988 16.93L11.7799 16.5C12.1999 16.44 12.7899 16.14 13.0999 15.84L20.9799 7.96C22.3399 6.6 22.9799 5.02 20.9799 3.02C18.9799 1.02 17.3999 1.66 16.0399 3.02Z" stroke="currentColor" stroke-width="1.5" stroke-miterlimit="10" stroke-linecap="round" stroke-linejoin="round"/><path d="M14.9102 4.15C15.5802 6.54 17.4502 8.41 19.8502 9.09" stroke="currentColor" stroke-width="1.5" stroke-miterlimit="10" stroke-linecap="round" stroke-linejoin="round"/></svg>
<svg viewBox="0 0 24 24" fill="none" id="email"><path d="M17 20.5H7C4 20.5 2 19 2 15.5V8.5C2 5 4 3.5 7 3.5H17C20 3.5 22 5 22 8.5V15.5C22 19 20 20.5 17 20.5Z" stroke="currentColor" stroke-width="1.5" stroke-miterlimit="10" stroke-linecap="round" stroke-linejoin="round"/><path d="M17 9L13.87 11.5C12.84 12.32 11.15 12.32 10.12 11.5L7 9" stroke="currentColor" stroke-width="1.5" stroke-miterlimit="10" stroke-linecap="round" stroke-linejoin="round"/></svg>
<svg viewBox="0 0 24 24" fill="none" id="explore content"><path d="M21 7V17C21 20 19.5 22 16 22H8C4.5 22 3 20 3 17V7C3 4 4.5 2 8 2H16C19.5 2 21 4 21 7Z" stroke="currentColor" stroke-width="1.5" stroke-miterlimit="10" stroke-linecap="round" stroke-linejoin="round"/><path d="M14.5 4.5V6.5C14.5 7.6 15.4 8.5 16.5 8.5H18.5" stroke="currentColor" stroke-width="1.5" stroke-miterlimit="10" stroke-linecap="round" stroke-linejoin="round"/><path d="M9.2 18.4C10.9673 18.4 12.4 16.9673 12.4 15.2C12.4 13.4327 10.9673 12 9.2 12C7.43269 12 6 13.4327 6 15.2C6 16.9673 7.43269 18.4 9.2 18.4Z" stroke="currentColor" stroke-width="1.5" stroke-linecap="round" stroke-linejoin="round"/><path d="M13 19L12 18" stroke="currentColor" stroke-width="1.5" stroke-linecap="round" stroke-linejoin="round"/></svg>
<svg viewBox="0 0 24 24" fill="none" id="eye-slash"><path d="M14.5299 9.47L9.46992 14.53C8.81992 13.88 8.41992 12.99 8.41992 12C8.41992 10.02 10.0199 8.42 11.9999 8.42C12.9899 8.42 13.8799 8.82 14.5299 9.47Z" stroke="currentColor" stroke-width="1.5" stroke-linecap="round" stroke-linejoin="round"/><path d="M17.8198 5.77C16.0698 4.45 14.0698 3.73 11.9998 3.73C8.46984 3.73 5.17984 5.81 2.88984 9.41C1.98984 10.82 1.98984 13.19 2.88984 14.6C3.67984 15.84 4.59984 16.91 5.59984 17.77" stroke="currentColor" stroke-width="1.5" stroke-linecap="round" stroke-linejoin="round"/><path d="M8.41992 19.53C9.55992 20.01 10.7699 20.27 11.9999 20.27C15.5299 20.27 18.8199 18.19 21.1099 14.59C22.0099 13.18 22.0099 10.81 21.1099 9.4C20.7799 8.88 20.4199 8.39 20.0499 7.93" stroke="currentColor" stroke-width="1.5" stroke-linecap="round" stroke-linejoin="round"/><path d="M15.5099 12.7C15.2499 14.11 14.0999 15.26 12.6899 15.52" stroke="currentColor" stroke-width="1.5" stroke-linecap="round" stroke-linejoin="round"/><path d="M9.47 14.53L2 22" stroke="currentColor" stroke-width="1.5" stroke-linecap="round" stroke-linejoin="round"/><path d="M21.9998 2L14.5298 9.47" stroke="currentColor" stroke-width="1.5" stroke-linecap="round" stroke-linejoin="round"/></svg>
<svg viewBox="0 0 24 24" fill="none" id="eye"><path d="M15.5799 12C15.5799 13.98 13.9799 15.58 11.9999 15.58C10.0199 15.58 8.41992 13.98 8.41992 12C8.41992 10.02 10.0199 8.42 11.9999 8.42C13.9799 8.42 15.5799 10.02 15.5799 12Z" stroke="currentColor" stroke-width="1.5" stroke-linecap="round" stroke-linejoin="round"/><path d="M11.9998 20.27C15.5298 20.27 18.8198 18.19 21.1098 14.59C22.0098 13.18 22.0098 10.81 21.1098 9.4C18.8198 5.8 15.5298 3.72 11.9998 3.72C8.46984 3.72 5.17984 5.8 2.88984 9.4C1.98984 10.81 1.98984 13.18 2.88984 14.59C5.17984 18.19 8.46984 20.27 11.9998 20.27Z" stroke="currentColor" stroke-width="1.5" stroke-linecap="round" stroke-linejoin="round"/></svg>
<svg viewBox="0 0 24 24" fill="none" id="filter-1"><path d="M2 19L13 19" stroke="currentColor" stroke-width="1.5" stroke-miterlimit="10" stroke-linecap="round" stroke-linejoin="round"/><path d="M17 19L22 19" stroke="currentColor" stroke-width="1.5" stroke-miterlimit="10" stroke-linecap="round" stroke-linejoin="round"/><path d="M2 12L7 12" stroke="currentColor" stroke-width="1.5" stroke-miterlimit="10" stroke-linecap="round" stroke-linejoin="round"/><path d="M11 12L22 12" stroke="currentColor" stroke-width="1.5" stroke-miterlimit="10" stroke-linecap="round" stroke-linejoin="round"/><path d="M2 5L13 5" stroke="currentColor" stroke-width="1.5" stroke-miterlimit="10" stroke-linecap="round" stroke-linejoin="round"/><path d="M17 5L22 5" stroke="currentColor" stroke-width="1.5" stroke-miterlimit="10" stroke-linecap="round" stroke-linejoin="round"/><path d="M13 3L13 7" stroke="currentColor" stroke-width="1.5" stroke-miterlimit="10" stroke-linecap="round" stroke-linejoin="round"/><path d="M13 17L13 21" stroke="currentColor" stroke-width="1.5" stroke-miterlimit="10" stroke-linecap="round" stroke-linejoin="round"/><path d="M11 10L11 14" stroke="currentColor" stroke-width="1.5" stroke-miterlimit="10" stroke-linecap="round" stroke-linejoin="round"/></svg>
<svg viewBox="0 0 24 24" fill="none" id="filter"><path d="M5.3999 2.1H18.5999C19.6999 2.1 20.5999 3 20.5999 4.1V6.3C20.5999 7.1 20.0999 8.1 19.5999 8.6L15.2999 12.4C14.6999 12.9 14.2999 13.9 14.2999 14.7V19C14.2999 19.6 13.8999 20.4 13.3999 20.7L11.9999 21.6C10.6999 22.4 8.8999 21.5 8.8999 19.9V14.6C8.8999 13.9 8.4999 13 8.0999 12.5L4.2999 8.5C3.7999 8 3.3999 7.1 3.3999 6.5V4.2C3.3999 3 4.2999 2.1 5.3999 2.1Z" stroke="currentColor" stroke-width="1.5" stroke-miterlimit="10" stroke-linecap="round" stroke-linejoin="round"/><path d="M10.93 2.1L6 10" stroke="currentColor" stroke-width="1.5" stroke-miterlimit="10" stroke-linecap="round" stroke-linejoin="round"/></svg>
<svg viewBox="0 0 24 24" fill="none" id="flash-circle"><path d="M8.68006 12.72H10.4201V16.77C10.4201 17.37 11.1601 17.65 11.5601 17.2L15.8201 12.36C16.1901 11.94 15.8901 11.28 15.3301 11.28H13.5901V7.23C13.5901 6.63 12.8501 6.35 12.4501 6.8L8.19006 11.64C7.82006 12.06 8.12006 12.72 8.68006 12.72Z" stroke="currentColor" stroke-width="1.5" stroke-miterlimit="10" stroke-linecap="round" stroke-linejoin="round"/><path d="M11.9702 22C17.4931 22 21.9702 17.5228 21.9702 12C21.9702 6.47715 17.4931 2 11.9702 2C6.44737 2 1.97021 6.47715 1.97021 12C1.97021 17.5228 6.44737 22 11.9702 22Z" stroke="currentColor" stroke-width="1.5" stroke-miterlimit="10" stroke-linecap="round" stroke-linejoin="round"/></svg>
<svg viewBox="0 0 24 24" fill="none" id="folder"><path d="M21.0169 7.99175C21.4148 8.55833 20.9405 9.25 20.2482 9.25H3C2.44772 9.25 2 8.80228 2 8.25V6.42C2 3.98 3.98 2 6.42 2H8.74C10.37 2 10.88 2.53 11.53 3.4L12.93 5.26C13.24 5.67 13.28 5.72 13.86 5.72H16.65C18.4546 5.72 20.0516 6.61709 21.0169 7.99175Z" fill="currentColor"/><path d="M20.9834 10.7497C21.5343 10.7497 21.9815 11.1954 21.9834 11.7463L22 16.65C22 19.6 19.6 22 16.65 22H7.35C4.4 22 2 19.6 2 16.65V11.75C2 11.1977 2.44771 10.75 2.99999 10.75L20.9834 10.7497Z" fill="currentColor"/></svg>
<svg viewBox="0 0 57 56" fill="none" id="heart-circle"><path d="M28.4998 51.3337C41.3865 51.3337 51.8332 40.887 51.8332 28.0003C51.8332 15.1137 41.3865 4.66699 28.4998 4.66699C15.6132 4.66699 5.1665 15.1137 5.1665 28.0003C5.1665 40.887 15.6132 51.3337 28.4998 51.3337Z" stroke="currentColor" stroke-width="1.5" stroke-linecap="round" stroke-linejoin="round"/><path d="M29.2699 40.7168C28.8499 40.8568 28.1266 40.8568 27.7066 40.7168C24.0666 39.4801 15.8999 34.2768 15.8999 25.4568C15.8999 21.5601 19.0266 18.4102 22.8999 18.4102C25.1866 18.4102 27.2166 19.5068 28.4999 21.2335C29.7599 19.5301 31.8132 18.4102 34.0999 18.4102C37.9732 18.4102 41.0999 21.5601 41.0999 25.4568C41.0999 34.2768 32.9332 39.4801 29.2699 40.7168Z" stroke="currentColor" stroke-width="1.5" stroke-linecap="round" stroke-linejoin="round"/></svg>
<svg viewBox="0 0 24 24" fill="none" id="home"><path d="M9.02 2.84L3.63 7.04C2.73 7.74 2 9.23 2 10.36V17.77C2 20.09 3.89 21.99 6.21 21.99H17.79C20.11 21.99 22 20.09 22 17.78V10.5C22 9.29 21.19 7.74 20.2 7.05L14.02 2.72C12.62 1.74 10.37 1.79 9.02 2.84Z" stroke="currentColor" stroke-width="1.5" stroke-linecap="round" stroke-linejoin="round"/><path d="M12 17.99V14.99" stroke="currentColor" stroke-width="1.5" stroke-linecap="round" stroke-linejoin="round"/></svg>
<svg viewBox="0 0 16 16" fill="none" id="import words"><path d="M6.66536 3.99992H9.33203C10.6654 3.99992 10.6654 3.33325 10.6654 2.66659C10.6654 1.33325 9.9987 1.33325 9.33203 1.33325H6.66536C5.9987 1.33325 5.33203 1.33325 5.33203 2.66659C5.33203 3.99992 5.9987 3.99992 6.66536 3.99992Z" stroke="currentColor" stroke-width="1.5" stroke-miterlimit="10" stroke-linecap="round" stroke-linejoin="round"/><path d="M9.33333 14.6666H6C2.66667 14.6666 2 13.3333 2 10.6666V6.6666C2 3.6266 3.11333 2.79993 5.33333 2.67993" stroke="currentColor" stroke-width="1.5" stroke-miterlimit="10" stroke-linecap="round" stroke-linejoin="round"/><path d="M10.668 2.67993C12.888 2.79993 14.0013 3.61993 14.0013 6.6666V9.99993" stroke="currentColor" stroke-width="1.5" stroke-miterlimit="10" stroke-linecap="round" stroke-linejoin="round"/><path d="M14 12.6667V14.6667H12" stroke="currentColor" stroke-width="1.5" stroke-miterlimit="10" stroke-linecap="round" stroke-linejoin="round"/><path d="M10 10.6667L13.9733 14.6401" stroke="currentColor" stroke-width="1.5" stroke-miterlimit="10" stroke-linecap="round" stroke-linejoin="round"/><path d="M6 6.66675L10 6.66675" stroke="currentColor" stroke-width="1.5" stroke-linecap="round" stroke-linejoin="round"/><path d="M6 8.66675L10 8.66675" stroke="currentColor" stroke-width="1.5" stroke-linecap="round" stroke-linejoin="round"/><path d="M6 10.6667L8.66667 10.6667" stroke="currentColor" stroke-width="1.5" stroke-linecap="round" stroke-linejoin="round"/></svg>
<svg viewBox="0 0 24 24" fill="none" id="info-circle"><path d="M12 8V13" stroke="currentColor" stroke-width="1.5" stroke-linecap="round" stroke-linejoin="round"/><path d="M11.9946 16H12.0036" stroke="currentColor" stroke-width="2" stroke-linecap="round" stroke-linejoin="round"/></svg>
<svg viewBox="0 0 24 24" fill="none" id="keyboard"><path d="M7.5 4H16.5C17.12 4 17.67 4.02 18.16 4.09C20.79 4.38 21.5 5.62 21.5 9V15C21.5 18.38 20.79 19.62 18.16 19.91C17.67 19.98 17.12 20 16.5 20H7.5C6.88 20 6.33 19.98 5.84 19.91C3.21 19.62 2.5 18.38 2.5 15V9C2.5 5.62 3.21 4.38 5.84 4.09C6.33 4.02 6.88 4 7.5 4Z" stroke="currentColor" stroke-width="1.5" stroke-linecap="round" stroke-linejoin="round"/><path d="M13.5 10H17" stroke="currentColor" stroke-width="1.5" stroke-linecap="round" stroke-linejoin="round"/><path d="M7 15.5H7.02H17" stroke="currentColor" stroke-width="1.5" stroke-linecap="round" stroke-linejoin="round"/><path d="M10.0946 10H10.1036" stroke="currentColor" stroke-width="2" stroke-linecap="round" stroke-linejoin="round"/><path d="M7.0946 10H7.10359" stroke="currentColor" stroke-width="2" stroke-linecap="round" stroke-linejoin="round"/></svg>
<svg viewBox="0 0 24 24" fill="none" id="lock"><path d="M6 10V8C6 4.69 7 2 12 2C17 2 18 4.69 18 8V10" stroke="currentColor" stroke-width="1.5" stroke-linecap="round" stroke-linejoin="round"/><path d="M17 22H7C3 22 2 21 2 17V15C2 11 3 10 7 10H17C21 10 22 11 22 15V17C22 21 21 22 17 22Z" stroke="currentColor" stroke-width="1.5" stroke-linecap="round" stroke-linejoin="round"/><path d="M15.9965 16H16.0054" stroke="currentColor" stroke-width="2" stroke-linecap="round" stroke-linejoin="round"/><path d="M11.9955 16H12.0045" stroke="currentColor" stroke-width="2" stroke-linecap="round" stroke-linejoin="round"/><path d="M7.99451 16H8.00349" stroke="currentColor" stroke-width="2" stroke-linecap="round" stroke-linejoin="round"/></svg>
<svg viewBox="0 0 24 24" fill="none" id="logout"><path d="M8.8999 7.56C9.2099 3.96 11.0599 2.49 15.1099 2.49H15.2399C19.7099 2.49 21.4999 4.28 21.4999 8.75V15.27C21.4999 19.74 19.7099 21.53 15.2399 21.53H15.1099C11.0899 21.53 9.2399 20.08 8.9099 16.54" stroke="currentColor" stroke-width="1.5" stroke-linecap="round" stroke-linejoin="round"/><path d="M15.0001 12H3.62012" stroke="currentColor" stroke-width="1.5" stroke-linecap="round" stroke-linejoin="round"/><path d="M5.85 8.65L2.5 12L5.85 15.35" stroke="currentColor" stroke-width="1.5" stroke-linecap="round" stroke-linejoin="round"/></svg>
<svg viewBox="0 0 24 24" fill="none" id="maximize"><path d="M2 10V7.5C2 5.01 4.01 3 6.5 3H9" stroke="currentColor" stroke-width="1.5" stroke-linecap="round" stroke-linejoin="round"/><path d="M15 3H17.5C19.99 3 22 5.01 22 7.5V10" stroke="currentColor" stroke-width="1.5" stroke-linecap="round" stroke-linejoin="round"/><path d="M22 15V16.5C22 18.99 19.99 21 17.5 21H16" stroke="currentColor" stroke-width="1.5" stroke-linecap="round" stroke-linejoin="round"/><path d="M9 21H6.5C4.01 21 2 18.99 2 16.5V14" stroke="currentColor" stroke-width="1.5" stroke-linecap="round" stroke-linejoin="round"/></svg>
<svg viewBox="0 0 24 24" fill="none" id="menu"><path d="M3 7H21" stroke="currentColor" stroke-width="1.5" stroke-linecap="round"/><path d="M3 12H21" stroke="currentColor" stroke-width="1.5" stroke-linecap="round"/><path d="M3 17H21" stroke="currentColor" stroke-width="1.5" stroke-linecap="round"/></svg>
<svg viewBox="0 0 24 24" fill="none" id="more"><path d="M5 10C3.9 10 3 10.9 3 12C3 13.1 3.9 14 5 14C6.1 14 7 13.1 7 12C7 10.9 6.1 10 5 10Z" fill="currentColor"/><path d="M19 10C17.9 10 17 10.9 17 12C17 13.1 17.9 14 19 14C20.1 14 21 13.1 21 12C21 10.9 20.1 10 19 10Z" fill="currentColor"/><path d="M12 10C10.9 10 10 10.9 10 12C10 13.1 10.9 14 12 14C13.1 14 14 13.1 14 12C14 10.9 13.1 10 12 10Z" fill="currentColor"/></svg>
<svg viewBox="0 0 24 24" fill="none" id="move to"><path d="M22 11V17C22 21 21 22 17 22H7C3 22 2 21 2 17V7C2 3 3 2 7 2H8.5C10 2 10.33 2.44 10.9 3.2L12.4 5.2C12.78 5.7 13 6 14 6H17C21 6 22 7 22 11Z" stroke="currentColor" stroke-width="1.5" stroke-miterlimit="10"/><path d="M13 16L15 14L13 12L15 14H9" stroke="currentColor" stroke-width="1.5" stroke-linecap="round" stroke-linejoin="round"/></svg>
<svg viewBox="0 0 24 24" fill="none" id="next"><path d="M3.75977 7.22V16.79C3.75977 18.75 5.88977 19.98 7.58977 19L11.7398 16.61L15.8898 14.21C17.5898 13.23 17.5898 10.78 15.8898 9.8L11.7398 7.4L7.58977 5.01C5.88977 4.03 3.75977 5.25 3.75977 7.22Z" fill="currentColor"/><path d="M20.2402 18.93C19.8302 18.93 19.4902 18.59 19.4902 18.18V5.82001C19.4902 5.41001 19.8302 5.07001 20.2402 5.07001C20.6502 5.07001 20.9902 5.41001 20.9902 5.82001V18.18C20.9902 18.59 20.6602 18.93 20.2402 18.93Z" fill="currentColor"/></svg>
<svg viewBox="0 0 24 24" fill="none" id="note"><path d="M8 2V5" stroke="currentColor" stroke-width="1.5" stroke-miterlimit="10" stroke-linecap="round" stroke-linejoin="round"/><path d="M16 2V5" stroke="currentColor" stroke-width="1.5" stroke-miterlimit="10" stroke-linecap="round" stroke-linejoin="round"/><path d="M7 13H15" stroke="currentColor" stroke-width="1.5" stroke-miterlimit="10" stroke-linecap="round" stroke-linejoin="round"/><path d="M7 17H12" stroke="currentColor" stroke-width="1.5" stroke-miterlimit="10" stroke-linecap="round" stroke-linejoin="round"/><path d="M16 3.5C19.33 3.68 21 4.95 21 9.65V15.83C21 19.95 20 22.01 15 22.01H9C4 22.01 3 19.95 3 15.83V9.65C3 4.95 4.67 3.69 8 3.5H16Z" stroke="currentColor" stroke-width="1.5" stroke-miterlimit="10" stroke-linecap="round" stroke-linejoin="round"/></svg>
<svg viewBox="0 0 24 24" fill="none" id="notification"><path d="M12.0201 2.91C8.71009 2.91 6.02009 5.6 6.02009 8.91V11.8C6.02009 12.41 5.76009 13.34 5.45009 13.86L4.30009 15.77C3.59009 16.95 4.08009 18.26 5.38009 18.7C9.69009 20.14 14.3401 20.14 18.6501 18.7C19.8601 18.3 20.3901 16.87 19.7301 15.77L18.5801 13.86C18.2801 13.34 18.0201 12.41 18.0201 11.8V8.91C18.0201 5.61 15.3201 2.91 12.0201 2.91Z" stroke="currentColor" stroke-width="1.5" stroke-miterlimit="10" stroke-linecap="round"/><path d="M13.8699 3.2C13.5599 3.11 13.2399 3.04 12.9099 3C11.9499 2.88 11.0299 2.95 10.1699 3.2C10.4599 2.46 11.1799 1.94 12.0199 1.94C12.8599 1.94 13.5799 2.46 13.8699 3.2Z" stroke="currentColor" stroke-width="1.5" stroke-miterlimit="10" stroke-linecap="round" stroke-linejoin="round"/><path d="M15.02 19.06C15.02 20.71 13.67 22.06 12.02 22.06C11.2 22.06 10.44 21.72 9.90002 21.18C9.36002 20.64 9.02002 19.88 9.02002 19.06" stroke="currentColor" stroke-width="1.5" stroke-miterlimit="10"/></svg>
<svg viewBox="0 0 24 24" fill="none" id="pause"><path d="M10.65 19.11V4.89C10.65 3.54 10.08 3 8.64 3H5.01C3.57 3 3 3.54 3 4.89V19.11C3 20.46 3.57 21 5.01 21H8.64C10.08 21 10.65 20.46 10.65 19.11Z" fill="currentColor"/><path d="M21.0001 19.11V4.89C21.0001 3.54 20.4301 3 18.9901 3H15.3601C13.9301 3 13.3501 3.54 13.3501 4.89V19.11C13.3501 20.46 13.9201 21 15.3601 21H18.9901C20.4301 21 21.0001 20.46 21.0001 19.11Z" fill="currentColor"/></svg>
<svg viewBox="0 0 24 24" fill="none" id="pause1"><path fill-rule="evenodd" clip-rule="evenodd" d="M24 12C24 18.6274 18.6274 24 12 24C5.37258 24 0 18.6274 0 12C0 5.37258 5.37258 0 12 0C18.6274 0 24 5.37258 24 12ZM11 8.05C11 7.3 10.702 7 9.94902 7H8.05098C7.29804 7 7 7.3 7 8.05V15.95C7 16.7 7.29804 17 8.05098 17H9.94902C10.702 17 11 16.7 11 15.95V8.05ZM15.949 7C16.702 7 17 7.3 17 8.05V15.95C17 16.7 16.702 17 15.949 17H14.051C13.298 17 13 16.7 13 15.95V8.05C13 7.3 13.3033 7 14.051 7H15.949Z" fill="currentColor"/></svg>
<svg viewBox="0 0 24 24" fill="none" id="payment card"><path d="M2 8.5H14.5" stroke="currentColor" stroke-width="1.5" stroke-miterlimit="10" stroke-linecap="round" stroke-linejoin="round"/><path d="M6 16.5H8" stroke="currentColor" stroke-width="1.5" stroke-miterlimit="10" stroke-linecap="round" stroke-linejoin="round"/><path d="M10.5 16.5H14.5" stroke="currentColor" stroke-width="1.5" stroke-miterlimit="10" stroke-linecap="round" stroke-linejoin="round"/><path d="M22 14.03V16.11C22 19.62 21.11 20.5 17.56 20.5H6.44C2.89 20.5 2 19.62 2 16.11V7.89C2 4.38 2.89 3.5 6.44 3.5H14.5" stroke="currentColor" stroke-width="1.5" stroke-linecap="round" stroke-linejoin="round"/><path d="M20 3.5V9.5L22 7.5" stroke="currentColor" stroke-width="1.5" stroke-linecap="round" stroke-linejoin="round"/><path d="M20 9.5L18 7.5" stroke="currentColor" stroke-width="1.5" stroke-linecap="round" stroke-linejoin="round"/></svg>
<svg viewBox="0 0 24 24" fill="none" id="payment"><path d="M19.3 7.91998V13.07C19.3 16.15 17.54 17.47 14.9 17.47H6.10995C5.65995 17.47 5.22996 17.43 4.82996 17.34C4.57996 17.3 4.33996 17.23 4.11996 17.15C2.61996 16.59 1.70996 15.29 1.70996 13.07V7.91998C1.70996 4.83998 3.46995 3.52002 6.10995 3.52002H14.9C17.14 3.52002 18.75 4.47001 19.18 6.64001C19.25 7.04001 19.3 7.44998 19.3 7.91998Z" stroke="currentColor" stroke-width="1.5" stroke-miterlimit="10" stroke-linecap="round" stroke-linejoin="round"/><path d="M22.3011 10.9201V16.0701C22.3011 19.1501 20.5411 20.4701 17.9011 20.4701H9.11105C8.37105 20.4701 7.70106 20.3701 7.12106 20.1501C5.93106 19.7101 5.12105 18.8001 4.83105 17.3401C5.23105 17.4301 5.66105 17.4701 6.11105 17.4701H14.9011C17.5411 17.4701 19.3011 16.1501 19.3011 13.0701V7.9201C19.3011 7.4501 19.2611 7.03014 19.1811 6.64014C21.0811 7.04014 22.3011 8.38011 22.3011 10.9201Z" stroke="currentColor" stroke-width="1.5" stroke-miterlimit="10" stroke-linecap="round" stroke-linejoin="round"/><path d="M10.4984 13.1399C11.9564 13.1399 13.1384 11.9579 13.1384 10.4999C13.1384 9.04185 11.9564 7.85986 10.4984 7.85986C9.04038 7.85986 7.8584 9.04185 7.8584 10.4999C7.8584 11.9579 9.04038 13.1399 10.4984 13.1399Z" stroke="currentColor" stroke-width="1.5" stroke-miterlimit="10" stroke-linecap="round" stroke-linejoin="round"/><path d="M4.77979 8.29999V12.7" stroke="currentColor" stroke-width="1.5" stroke-miterlimit="10" stroke-linecap="round" stroke-linejoin="round"/><path d="M16.2217 8.30029V12.7003" stroke="currentColor" stroke-width="1.5" stroke-miterlimit="10" stroke-linecap="round" stroke-linejoin="round"/></svg>
<svg viewBox="0 0 24 24" fill="none" id="play"><path d="M4 12V8.44C4 4.02 7.13 2.21 10.96 4.42L14.05 6.2L17.14 7.98C20.97 10.19 20.97 13.81 17.14 16.02L14.05 17.8L10.96 19.58C7.13 21.79 4 19.98 4 15.56V12Z" fill="currentColor"/></svg>
<svg viewBox="0 0 24 24" fill="none" id="playing"><path fill-rule="evenodd" clip-rule="evenodd" d="M12 24C18.6274 24 24 18.6274 24 12C24 5.37258 18.6274 0 12 0C5.37258 0 0 5.37258 0 12C0 18.6274 5.37258 24 12 24ZM7.5 9.80707V12V14.1929C7.5 16.9156 9.25925 18.0306 11.4119 16.6692L13.1487 15.5728L14.8855 14.4763C17.0382 13.1149 17.0382 10.8851 14.8855 9.52371L13.1487 8.42725L11.4119 7.33078C9.25925 5.96944 7.5 7.08439 7.5 9.80707Z" fill="currentColor"/></svg>
<svg viewBox="0 0 24 24" fill="none" id="previous"><path d="M20.24 7.22V16.79C20.24 18.75 18.11 19.98 16.41 19L12.26 16.61L8.10996 14.21C6.40996 13.23 6.40996 10.78 8.10996 9.8L12.26 7.4L16.41 5.01C18.11 4.03 20.24 5.25 20.24 7.22Z" fill="currentColor"/><path d="M3.75977 18.93C3.34977 18.93 3.00977 18.59 3.00977 18.18V5.82001C3.00977 5.41001 3.34977 5.07001 3.75977 5.07001C4.16977 5.07001 4.50977 5.41001 4.50977 5.82001V18.18C4.50977 18.59 4.16977 18.93 3.75977 18.93Z" fill="currentColor"/></svg>
<svg viewBox="0 0 24 24" fill="none" id="repeat"><path d="M3.58008 5.15997H17.4201C19.0801 5.15997 20.4201 6.49997 20.4201 8.15997V11.48" stroke="currentColor" stroke-width="1.5" stroke-miterlimit="10" stroke-linecap="round" stroke-linejoin="round"/><path d="M6.74008 2L3.58008 5.15997L6.74008 8.32001" stroke="currentColor" stroke-width="1.5" stroke-miterlimit="10" stroke-linecap="round" stroke-linejoin="round"/><path d="M20.4201 18.84H6.58008C4.92008 18.84 3.58008 17.5 3.58008 15.84V12.52" stroke="currentColor" stroke-width="1.5" stroke-miterlimit="10" stroke-linecap="round" stroke-linejoin="round"/><path d="M17.2603 22L20.4203 18.84L17.2603 15.68" stroke="currentColor" stroke-width="1.5" stroke-miterlimit="10" stroke-linecap="round" stroke-linejoin="round"/></svg>
<svg viewBox="0 0 24 24" fill="none" id="repeate-music"><path d="M14.0002 3L16.4402 5.34003L8.49023 5.32001C4.92023 5.32001 1.99023 8.25003 1.99023 11.84C1.99023 13.63 2.72022 15.26 3.90022 16.44" stroke="currentColor" stroke-width="1.5" stroke-linecap="round" stroke-linejoin="round"/><path d="M10.0001 21L7.56006 18.66L15.5101 18.68C19.0801 18.68 22.0101 15.75 22.0101 12.16C22.0101 10.37 21.2801 8.74 20.1001 7.56" stroke="currentColor" stroke-width="1.5" stroke-linecap="round" stroke-linejoin="round"/><path d="M9 12H15" stroke="currentColor" stroke-width="1.5" stroke-linecap="round" stroke-linejoin="round"/></svg>
<svg viewBox="0 0 24 24" fill="none" id="repeate-one"><path d="M14.0002 3L16.4402 5.34003L8.49023 5.32001C4.92023 5.32001 1.99023 8.25003 1.99023 11.84C1.99023 13.63 2.72024 15.26 3.90024 16.44" stroke="currentColor" stroke-width="1.5" stroke-linecap="round" stroke-linejoin="round"/><path d="M10.0001 21L7.56006 18.66L15.5101 18.68C19.0801 18.68 22.0101 15.75 22.0101 12.16C22.0101 10.37 21.2801 8.74 20.1001 7.56" stroke="currentColor" stroke-width="1.5" stroke-linecap="round" stroke-linejoin="round"/><path d="M12.25 14.67V9.33002L10.75 11" stroke="currentColor" stroke-width="1.5" stroke-linecap="round" stroke-linejoin="round"/></svg>
<svg viewBox="0 0 24 24" fill="none" id="search"><path d="M11.5 21C16.7467 21 21 16.7467 21 11.5C21 6.25329 16.7467 2 11.5 2C6.25329 2 2 6.25329 2 11.5C2 16.7467 6.25329 21 11.5 21Z" stroke="currentColor" stroke-width="1.5" stroke-linecap="round" stroke-linejoin="round"/><path d="M22 22L20 20" stroke="currentColor" stroke-width="1.5" stroke-linecap="round" stroke-linejoin="round"/></svg>
<svg viewBox="0 0 24 24" fill="none" id="security-card"><path d="M11.74 17.75H17.66C17.57 17.83 17.48 17.9 17.39 17.98L13.12 21.18C11.71 22.23 9.41001 22.23 7.99001 21.18L3.71001 17.98C2.77001 17.28 2 15.73 2 14.56V7.14998C2 5.92998 2.93001 4.57998 4.07001 4.14998L9.05 2.27999C9.87 1.96999 11.23 1.96999 12.05 2.27999L17.02 4.14998C17.97 4.50998 18.78 5.50999 19.03 6.52999H11.73C11.51 6.52999 11.31 6.54 11.12 6.54C9.27 6.65 8.78999 7.31998 8.78999 9.42998V14.86C8.79999 17.16 9.39001 17.75 11.74 17.75Z" stroke="currentColor" stroke-width="1.5" stroke-linecap="round" stroke-linejoin="round"/><path d="M8.7998 11.22H21.9998" stroke="currentColor" stroke-width="1.5" stroke-miterlimit="10" stroke-linecap="round" stroke-linejoin="round"/><path d="M21.9998 9.42001V14.97C21.9798 17.19 21.3698 17.74 19.0598 17.74H11.7398C9.38981 17.74 8.7998 17.15 8.7998 14.84V9.41C8.7998 7.31 9.27981 6.63999 11.1298 6.51999C11.3198 6.51999 11.5198 6.51001 11.7398 6.51001H19.0598C21.4098 6.52001 21.9998 7.10001 21.9998 9.42001Z" stroke="currentColor" stroke-width="1.5" stroke-linecap="round" stroke-linejoin="round"/><path d="M11.3198 15.26H12.6498" stroke="currentColor" stroke-width="1.5" stroke-miterlimit="10" stroke-linecap="round" stroke-linejoin="round"/><path d="M14.75 15.26H18.02" stroke="currentColor" stroke-width="1.5" stroke-miterlimit="10" stroke-linecap="round" stroke-linejoin="round"/></svg>
<svg viewBox="0 0 24 24" fill="none" id="setting"><path d="M12 15C13.6569 15 15 13.6569 15 12C15 10.3431 13.6569 9 12 9C10.3431 9 9 10.3431 9 12C9 13.6569 10.3431 15 12 15Z" stroke="currentColor" stroke-width="1.5" stroke-miterlimit="10" stroke-linecap="round" stroke-linejoin="round"/><path d="M2 12.88V11.12C2 10.08 2.85 9.22 3.9 9.22C5.71 9.22 6.45 7.94 5.54 6.37C5.02 5.47 5.33 4.3 6.24 3.78L7.97 2.79C8.76 2.32 9.78 2.6 10.25 3.39L10.36 3.58C11.26 5.15 12.74 5.15 13.65 3.58L13.76 3.39C14.23 2.6 15.25 2.32 16.04 2.79L17.77 3.78C18.68 4.3 18.99 5.47 18.47 6.37C17.56 7.94 18.3 9.22 20.11 9.22C21.15 9.22 22.01 10.07 22.01 11.12V12.88C22.01 13.92 21.16 14.78 20.11 14.78C18.3 14.78 17.56 16.06 18.47 17.63C18.99 18.54 18.68 19.7 17.77 20.22L16.04 21.21C15.25 21.68 14.23 21.4 13.76 20.61L13.65 20.42C12.75 18.85 11.27 18.85 10.36 20.42L10.25 20.61C9.78 21.4 8.76 21.68 7.97 21.21L6.24 20.22C5.33 19.7 5.02 18.53 5.54 17.63C6.45 16.06 5.71 14.78 3.9 14.78C2.85 14.78 2 13.92 2 12.88Z" stroke="currentColor" stroke-width="1.5" stroke-miterlimit="10" stroke-linecap="round" stroke-linejoin="round"/></svg>
<svg viewBox="0 0 24 24" fill="none" id="sign in"><path d="M8.8999 7.56C9.2099 3.96 11.0599 2.49 15.1099 2.49H15.2399C19.7099 2.49 21.4999 4.28 21.4999 8.75V15.27C21.4999 19.74 19.7099 21.53 15.2399 21.53H15.1099C11.0899 21.53 9.2399 20.08 8.9099 16.54" stroke="currentColor" stroke-width="1.5" stroke-linecap="round" stroke-linejoin="round"/><path d="M2 12H14.88" stroke="currentColor" stroke-width="1.5" stroke-linecap="round" stroke-linejoin="round"/><path d="M12.6499 8.65L15.9999 12L12.6499 15.35" stroke="currentColor" stroke-width="1.5" stroke-linecap="round" stroke-linejoin="round"/></svg>
<svg viewBox="0 0 24 24" fill="none" id="sign up"><path d="M11.4599 13.73C13.0118 13.73 14.2699 12.4719 14.2699 10.92C14.2699 9.36806 13.0118 8.10999 11.4599 8.10999C9.90798 8.10999 8.6499 9.36806 8.6499 10.92C8.6499 12.4719 9.90798 13.73 11.4599 13.73Z" stroke="currentColor" stroke-width="1.5" stroke-linecap="round" stroke-linejoin="round"/><path d="M16.65 20.2C16.65 17.87 14.33 15.97 11.46 15.97C8.59002 15.97 6.27002 17.86 6.27002 20.2" stroke="currentColor" stroke-width="1.5" stroke-linecap="round" stroke-linejoin="round"/><path d="M21 12.5C21 17.75 16.75 22 11.5 22C6.25 22 2 17.75 2 12.5C2 7.25 6.25 3 11.5 3C12.81 3 14.06 3.25999 15.2 3.73999C15.07 4.13999 15 4.56 15 5C15 5.75 15.21 6.46 15.58 7.06C15.78 7.4 16.04 7.70997 16.34 7.96997C17.04 8.60997 17.97 9 19 9C19.44 9 19.86 8.92998 20.25 8.78998C20.73 9.92998 21 11.19 21 12.5Z" stroke="currentColor" stroke-width="1.5" stroke-linecap="round" stroke-linejoin="round"/><path d="M23 5C23 5.32 22.96 5.62999 22.88 5.92999C22.79 6.32999 22.63 6.72 22.42 7.06C21.94 7.87 21.17 8.49998 20.25 8.78998C19.86 8.92998 19.44 9 19 9C17.97 9 17.04 8.60997 16.34 7.96997C16.04 7.70997 15.78 7.4 15.58 7.06C15.21 6.46 15 5.75 15 5C15 4.56 15.07 4.13999 15.2 3.73999C15.39 3.15999 15.71 2.64002 16.13 2.21002C16.86 1.46002 17.88 1 19 1C20.18 1 21.25 1.51002 21.97 2.33002C22.61 3.04002 23 3.98 23 5Z" stroke="currentColor" stroke-width="1.5" stroke-miterlimit="10" stroke-linecap="round" stroke-linejoin="round"/><path d="M20.4898 4.97998H17.5098" stroke="currentColor" stroke-width="1.5" stroke-miterlimit="10" stroke-linecap="round" stroke-linejoin="round"/><path d="M19 3.52002V6.51001" stroke="currentColor" stroke-width="1.5" stroke-miterlimit="10" stroke-linecap="round" stroke-linejoin="round"/></svg>
<svg viewBox="0 0 24 24" fill="none" id="slash"><path d="M12 22C17.52 22 22 17.52 22 12C22 6.48 17.52 2 12 2C6.48 2 2 6.48 2 12C2 17.52 6.48 22 12 22Z" stroke="currentColor" stroke-width="1.5" stroke-miterlimit="10" stroke-linecap="round" stroke-linejoin="round"/><path d="M18.8999 5L4.8999 19" stroke="currentColor" stroke-width="1.5" stroke-miterlimit="10" stroke-linecap="round" stroke-linejoin="round"/></svg>
<svg viewBox="0 0 24 24" fill="none" id="smallcaps"><path d="M1.99023 5.93V4.42C1.99023 3.4 2.82023 2.57 3.84023 2.57H16.7602C17.7802 2.57 18.6102 3.4 18.6102 4.42V5.93" stroke="currentColor" stroke-width="1.5" stroke-linecap="round" stroke-linejoin="round"/><path d="M10.2998 18.1V3.32" stroke="currentColor" stroke-width="1.5" stroke-linecap="round" stroke-linejoin="round"/><path d="M6.8999 18.1H12.4799" stroke="currentColor" stroke-width="1.5" stroke-linecap="round" stroke-linejoin="round"/><path d="M13.6802 10.34H20.6902C21.4202 10.34 22.0102 10.93 22.0102 11.66V12.46" stroke="currentColor" stroke-width="1.5" stroke-linecap="round" stroke-linejoin="round"/><path d="M16.0801 21.43V10.87" stroke="currentColor" stroke-width="1.5" stroke-linecap="round" stroke-linejoin="round"/><path d="M13.9399 21.43H18.2199" stroke="currentColor" stroke-width="1.5" stroke-linecap="round" stroke-linejoin="round"/></svg>
<svg viewBox="0 0 24 24" fill="none" id="study"><path d="M10.05 2.53L4.03002 6.46C2.10002 7.72 2.10002 10.54 4.03002 11.8L10.05 15.73C11.13 16.44 12.91 16.44 13.99 15.73L19.98 11.8C21.9 10.54 21.9 7.73 19.98 6.47L13.99 2.54C12.91 1.82 11.13 1.82 10.05 2.53Z" stroke="currentColor" stroke-width="1.5" stroke-linecap="round" stroke-linejoin="round"/><path d="M5.63012 13.08L5.62012 17.77C5.62012 19.04 6.60012 20.4 7.80012 20.8L10.9901 21.86C11.5401 22.04 12.4501 22.04 13.0101 21.86L16.2001 20.8C17.4001 20.4 18.3801 19.04 18.3801 17.77V13.13" stroke="currentColor" stroke-width="1.5" stroke-linecap="round" stroke-linejoin="round"/><path d="M21.3999 15V9" stroke="currentColor" stroke-width="1.5" stroke-linecap="round" stroke-linejoin="round"/></svg>
<svg viewBox="0 0 24 26" fill="none" id="surprise box"><circle cx="12" cy="11" r="4.25" stroke="currentColor" stroke-width="1.5"/><circle cx="10.5" cy="9.5" r="0.5" fill="currentColor"/><circle cx="13.5" cy="9.5" r="0.5" fill="currentColor"/><path d="M10.5 11C10.7857 11.3333 11.3143 12 12 12C12.6857 12 13.3571 11.3333 13.5 11" stroke="currentColor" stroke-width="1.5"/><path d="M1 9C2 9.16667 4 10.1 4 12.5" stroke="currentColor" stroke-width="1.5"/><path d="M5 2C6 2.16667 8 3.1 8 5.5" stroke="currentColor" stroke-width="1.5"/><path d="M13 5.5C13.1629 4.68541 13.6762 3.07454 14.4464 3.0025C14.4797 2.99939 14.511 2.98336 14.5299 2.95583C14.8829 2.44352 15.7229 1.5 16.5 1.5" stroke="currentColor" stroke-width="1.5"/><path d="M15.6114 14.5H3.60292C3.53833 14.5 3.47772 14.5312 3.44018 14.5838L1.22589 17.6838C1.13134 17.8161 1.22596 18 1.38864 18H13.3971C13.4617 18 13.5223 17.9688 13.5598 17.9162L15.7741 14.8162C15.8687 14.6839 15.774 14.5 15.6114 14.5Z" stroke="currentColor" stroke-width="1.5"/><path d="M22.9145 17.8504L21.0288 14.5504C21.011 14.5192 20.9779 14.5 20.942 14.5H15.6943C15.613 14.5 15.5657 14.5919 15.6129 14.6581L17.9701 17.9581C17.9889 17.9844 18.0192 18 18.0515 18H22.8277C22.9045 18 22.9526 17.9171 22.9145 17.8504Z" stroke="currentColor" stroke-width="1.5"/><path d="M4 24.4V18H13.4532C13.4828 18 13.511 17.9868 13.53 17.964L15.8232 15.2122C15.8831 15.1403 16 15.1827 16 15.2762V24.5H4.1C4.04477 24.5 4 24.4552 4 24.4Z" stroke="currentColor" stroke-width="1.5"/><path d="M8.4 20H4.1C4.04477 20 4 20.0448 4 20.1V22.4C4 22.4552 4.04477 22.5 4.1 22.5H8.4C8.45523 22.5 8.5 22.4552 8.5 22.4V20.1C8.5 20.0448 8.45523 20 8.4 20Z" stroke="currentColor" stroke-width="1.5"/><path d="M20.5 24.4V18H18.0535C18.0201 18 17.9889 17.9833 17.9703 17.9555L16 15V24.5H20.4C20.4552 24.5 20.5 24.4552 20.5 24.4Z" stroke="currentColor" stroke-width="1.5"/><circle cx="2.5" cy="5.5" r="0.5" fill="currentColor"/><circle cx="4.5" cy="6.5" r="0.5" fill="currentColor"/><circle cx="5.5" cy="7.5" r="0.5" fill="currentColor"/><circle cx="15" cy="4" r="1" fill="currentColor"/><path d="M21 3.5C20 3.33333 18 3.6 18 6" stroke="currentColor" stroke-width="1.5"/><circle cx="5.5" cy="9.5" r="0.5" fill="currentColor"/><path d="M23.5 7.5C22.1667 7.5 19.5 8.5 19.5 12.5" stroke="currentColor" stroke-width="1.5"/></svg>
<svg viewBox="0 0 24 24" fill="none" id="tariff"><path d="M6.73 19.7C7.55 18.82 8.8 18.89 9.52 19.85L10.53 21.2C11.34 22.27 12.65 22.27 13.46 21.2L14.47 19.85C15.19 18.89 16.44 18.82 17.26 19.7C19.04 21.6 20.49 20.97 20.49 18.31V7.04C20.5 3.01 19.56 2 15.78 2H8.22C4.44 2 3.5 3.01 3.5 7.04V18.3C3.5 20.97 4.96 21.59 6.73 19.7Z" stroke="currentColor" stroke-width="1.5" stroke-linecap="round" stroke-linejoin="round"/><path d="M8 7H16" stroke="currentColor" stroke-width="1.5" stroke-linecap="round" stroke-linejoin="round"/><path d="M9 11H15" stroke="currentColor" stroke-width="1.5" stroke-linecap="round" stroke-linejoin="round"/></svg>
<svg viewBox="0 0 24 24" fill="none" id="tick-circle"><path d="M12 22C17.5 22 22 17.5 22 12C22 6.5 17.5 2 12 2C6.5 2 2 6.5 2 12C2 17.5 6.5 22 12 22Z" fill="currentColor"/><path d="M7.75 12L10.58 14.83L16.25 9.17" stroke="white" stroke-width="1.5" stroke-linecap="round" stroke-linejoin="round"/></svg>
<svg viewBox="0 0 24 24" fill="none" id="translate"><path d="M19.0598 18.67L16.9198 14.4L14.7798 18.67" stroke="currentColor" stroke-width="1.5" stroke-linecap="round" stroke-linejoin="round"/><path d="M15.1699 17.91H18.6899" stroke="currentColor" stroke-width="1.5" stroke-linecap="round" stroke-linejoin="round"/><path d="M16.9198 22C14.1198 22 11.8398 19.73 11.8398 16.92C11.8398 14.12 14.1098 11.84 16.9198 11.84C19.7198 11.84 21.9998 14.11 21.9998 16.92C21.9998 19.73 19.7298 22 16.9198 22Z" stroke="currentColor" stroke-width="1.5" stroke-linecap="round" stroke-linejoin="round"/><path d="M5.02 2H8.94C11.01 2 12.01 3.00002 11.96 5.02002V8.94C12.01 11.01 11.01 12.01 8.94 11.96H5.02C3 12 2 11 2 8.92999V5.01001C2 3.00001 3 2 5.02 2Z" stroke="currentColor" stroke-width="1.5" stroke-linecap="round" stroke-linejoin="round"/><path d="M9.0097 5.84998H4.94971" stroke="currentColor" stroke-width="1.5" stroke-linecap="round" stroke-linejoin="round"/><path d="M6.96973 5.16998V5.84998" stroke="currentColor" stroke-width="1.5" stroke-linecap="round" stroke-linejoin="round"/><path d="M7.98994 5.84003C7.98994 7.59003 6.61994 9.01001 4.93994 9.01001" stroke="currentColor" stroke-width="1.5" stroke-linecap="round" stroke-linejoin="round"/><path d="M9.01015 9.01001C8.28015 9.01001 7.62016 8.62 7.16016 8" stroke="currentColor" stroke-width="1.5" stroke-linecap="round" stroke-linejoin="round"/><path d="M2 15C2 18.87 5.13 22 9 22L7.95 20.25" stroke="currentColor" stroke-width="1.5" stroke-linecap="round" stroke-linejoin="round"/><path d="M22 9C22 5.13 18.87 2 15 2L16.05 3.75" stroke="currentColor" stroke-width="1.5" stroke-linecap="round" stroke-linejoin="round"/></svg>
<svg viewBox="0 0 24 24" fill="none" id="trash"><path d="M21 5.98C17.67 5.65 14.32 5.48 10.98 5.48C9 5.48 7.02 5.58 5.04 5.78L3 5.98" stroke="currentColor" stroke-width="1.5" stroke-linecap="round" stroke-linejoin="round"/><path d="M8.5 4.97L8.72 3.66C8.88 2.71 9 2 10.69 2H13.31C15 2 15.13 2.75 15.28 3.67L15.5 4.97" stroke="currentColor" stroke-width="1.5" stroke-linecap="round" stroke-linejoin="round"/><path d="M18.8499 9.14L18.1999 19.21C18.0899 20.78 17.9999 22 15.2099 22H8.7899C5.9999 22 5.9099 20.78 5.7999 19.21L5.1499 9.14" stroke="currentColor" stroke-width="1.5" stroke-linecap="round" stroke-linejoin="round"/><path d="M10.3301 16.5H13.6601" stroke="currentColor" stroke-width="1.5" stroke-linecap="round" stroke-linejoin="round"/><path d="M9.5 12.5H14.5" stroke="currentColor" stroke-width="1.5" stroke-linecap="round" stroke-linejoin="round"/></svg>
<svg viewBox="0 0 24 24" fill="none" id="upper arrow"><path d="M17.0002 13.41L12.7102 9.17C12.6172 9.07627 12.5066 9.00188 12.3848 8.95111C12.2629 8.90034 12.1322 8.8742 12.0002 8.8742C11.8682 8.8742 11.7375 8.90034 11.6156 8.95111C11.4938 9.00188 11.3832 9.07627 11.2902 9.17L7.05019 13.41C6.95646 13.503 6.88207 13.6136 6.8313 13.7354C6.78053 13.8573 6.75439 13.988 6.75439 14.12C6.75439 14.252 6.78053 14.3827 6.8313 14.5046C6.88207 14.6264 6.95646 14.737 7.05019 14.83C7.23756 15.0163 7.49101 15.1208 7.75519 15.1208C8.01938 15.1208 8.27283 15.0163 8.46019 14.83L12.0002 11.29L15.5402 14.83C15.7265 15.0147 15.9779 15.1189 16.2402 15.12C16.3718 15.1208 16.5023 15.0955 16.6241 15.0458C16.7459 14.996 16.8568 14.9227 16.9502 14.83C17.0473 14.7404 17.1256 14.6324 17.1807 14.5123C17.2358 14.3923 17.2666 14.2625 17.2713 14.1304C17.2759 13.9984 17.2543 13.8667 17.2078 13.7431C17.1613 13.6194 17.0907 13.5062 17.0002 13.41Z" fill="black"/></svg>
<svg viewBox="0 0 24 24" fill="none" id="user"><path d="M12.1202 12.78C12.0502 12.77 11.9602 12.77 11.8802 12.78C10.1202 12.72 8.72021 11.28 8.72021 9.51C8.72021 7.7 10.1802 6.23 12.0002 6.23C13.8102 6.23 15.2802 7.7 15.2802 9.51C15.2702 11.28 13.8802 12.72 12.1202 12.78Z" stroke="currentColor" stroke-width="1.5" stroke-linecap="round" stroke-linejoin="round"/><path d="M18.7398 19.38C16.9598 21.01 14.5998 22 11.9998 22C9.39977 22 7.03977 21.01 5.25977 19.38C5.35977 18.44 5.95977 17.52 7.02977 16.8C9.76977 14.98 14.2498 14.98 16.9698 16.8C18.0398 17.52 18.6398 18.44 18.7398 19.38Z" stroke="currentColor" stroke-width="1.5" stroke-linecap="round" stroke-linejoin="round"/><path d="M12 22C17.5228 22 22 17.5228 22 12C22 6.47715 17.5228 2 12 2C6.47715 2 2 6.47715 2 12C2 17.5228 6.47715 22 12 22Z" stroke="currentColor" stroke-width="1.5" stroke-linecap="round" stroke-linejoin="round"/></svg>
<svg viewBox="0 0 24 24" fill="none" id="video-play"><path d="M22 15V9C22 4 20 2 15 2H9C4 2 2 4 2 9V15C2 20 4 22 9 22H15C20 22 22 20 22 15Z" stroke="currentColor" stroke-width="1.5" stroke-linecap="round" stroke-linejoin="round"/><path d="M2.52002 7.11H21.48" stroke="currentColor" stroke-width="1.5" stroke-linecap="round" stroke-linejoin="round"/><path d="M8.52002 2.11V6.97" stroke="currentColor" stroke-width="1.5" stroke-linecap="round" stroke-linejoin="round"/><path d="M15.48 2.11V6.52" stroke="currentColor" stroke-width="1.5" stroke-linecap="round" stroke-linejoin="round"/><path d="M9.75 14.45V13.25C9.75 11.71 10.84 11.08 12.17 11.85L13.21 12.45L14.25 13.05C15.58 13.82 15.58 15.08 14.25 15.85L13.21 16.45L12.17 17.05C10.84 17.82 9.75 17.19 9.75 15.65V14.45V14.45Z" stroke="currentColor" stroke-width="1.5" stroke-miterlimit="10" stroke-linecap="round" stroke-linejoin="round"/></svg>
<svg viewBox="0 0 24 24" fill="none" id="volume high"><path d="M2 9.99979V13.9998C2 15.9998 3 16.9998 5 16.9998H6.43C6.8 16.9998 7.17 17.1098 7.49 17.2998L10.41 19.1298C12.93 20.7098 15 19.5598 15 16.5898V7.40979C15 4.42979 12.93 3.28979 10.41 4.86979L7.49 6.69979C7.17 6.88979 6.8 6.99979 6.43 6.99979H5C3 6.99979 2 7.99979 2 9.99979Z" stroke="currentColor" stroke-width="1.5"/><path d="M18 8C19.78 10.37 19.78 13.63 18 16" stroke="currentColor" stroke-width="1.5" stroke-linecap="round" stroke-linejoin="round"/><path d="M19.8301 5.5C22.7201 9.35 22.7201 14.65 19.8301 18.5" stroke="currentColor" stroke-width="1.5" stroke-linecap="round" stroke-linejoin="round"/></svg>
<svg viewBox="0 0 24 24" fill="none" id="volume-cross"><path d="M22.5299 13.42L21.0799 11.97L22.4799 10.57C22.7699 10.28 22.7699 9.79999 22.4799 9.50999C22.1899 9.21999 21.7099 9.21999 21.4199 9.50999L20.0199 10.91L18.5699 9.45999C18.2799 9.16999 17.7999 9.16999 17.5099 9.45999C17.2199 9.74999 17.2199 10.23 17.5099 10.52L18.9599 11.97L17.4699 13.46C17.1799 13.75 17.1799 14.23 17.4699 14.52C17.6199 14.67 17.8099 14.74 17.9999 14.74C18.1899 14.74 18.3799 14.67 18.5299 14.52L20.0199 13.03L21.4699 14.48C21.6199 14.63 21.8099 14.7 21.9999 14.7C22.1899 14.7 22.3799 14.63 22.5299 14.48C22.8199 14.19 22.8199 13.72 22.5299 13.42Z" fill="currentColor"/><path d="M14.02 3.78C12.9 3.16 11.47 3.32 10.01 4.23L7.09 6.06C6.89 6.18 6.66 6.25 6.43 6.25H5.5H5C2.58 6.25 1.25 7.58 1.25 10V14C1.25 16.42 2.58 17.75 5 17.75H5.5H6.43C6.66 17.75 6.89 17.82 7.09 17.94L10.01 19.77C10.89 20.32 11.75 20.59 12.55 20.59C13.07 20.59 13.57 20.47 14.02 20.22C15.13 19.6 15.75 18.31 15.75 16.59V7.41C15.75 5.69 15.13 4.4 14.02 3.78Z" fill="currentColor"/></svg>
<svg viewBox="0 0 24 24" fill="none" id="volume-high"><path d="M17.9998 16.75C17.8398 16.75 17.6898 16.7 17.5498 16.6C17.2198 16.35 17.1498 15.88 17.3998 15.55C18.9698 13.46 18.9698 10.54 17.3998 8.45C17.1498 8.12 17.2198 7.65 17.5498 7.4C17.8798 7.15 18.3498 7.22 18.5998 7.55C20.5598 10.17 20.5598 13.83 18.5998 16.45C18.4498 16.65 18.2298 16.75 17.9998 16.75Z" fill="currentColor"/><path d="M19.8299 19.25C19.6699 19.25 19.5199 19.2 19.3799 19.1C19.0499 18.85 18.9799 18.38 19.2299 18.05C21.8999 14.49 21.8999 9.51 19.2299 5.95C18.9799 5.62 19.0499 5.15 19.3799 4.9C19.7099 4.65 20.1799 4.72 20.4299 5.05C23.4999 9.14 23.4999 14.86 20.4299 18.95C20.2899 19.15 20.0599 19.25 19.8299 19.25Z" fill="currentColor"/><path d="M14.02 3.78C12.9 3.16 11.47 3.32 10.01 4.23L7.09 6.06C6.89 6.18 6.66 6.25 6.43 6.25H5.5H5C2.58 6.25 1.25 7.58 1.25 10V14C1.25 16.42 2.58 17.75 5 17.75H5.5H6.43C6.66 17.75 6.89 17.82 7.09 17.94L10.01 19.77C10.89 20.32 11.75 20.59 12.55 20.59C13.07 20.59 13.57 20.47 14.02 20.22C15.13 19.6 15.75 18.31 15.75 16.59V7.41C15.75 5.69 15.13 4.4 14.02 3.78Z" fill="currentColor"/></svg>
<svg viewBox="0 0 24 24" fill="none" id="volume-low"><path d="M19.3299 16.75C19.1699 16.75 19.0199 16.7 18.8799 16.6C18.5499 16.35 18.4799 15.88 18.7299 15.55C20.2999 13.46 20.2999 10.54 18.7299 8.45C18.4799 8.12 18.5499 7.65 18.8799 7.4C19.2099 7.15 19.6799 7.22 19.9299 7.55C21.8999 10.17 21.8999 13.83 19.9299 16.45C19.7899 16.65 19.5599 16.75 19.3299 16.75Z" fill="currentColor"/><path d="M15.3501 3.78C14.2301 3.16 12.8001 3.32 11.3401 4.23L8.42008 6.06C8.22008 6.18 7.99008 6.25 7.76008 6.25H6.83008H6.33008C3.91008 6.25 2.58008 7.58 2.58008 10V14C2.58008 16.42 3.91008 17.75 6.33008 17.75H6.83008H7.76008C7.99008 17.75 8.22008 17.82 8.42008 17.94L11.3401 19.77C12.2201 20.32 13.0801 20.59 13.8801 20.59C14.4001 20.59 14.9001 20.47 15.3501 20.22C16.4601 19.6 17.0801 18.31 17.0801 16.59V7.41C17.0801 5.69 16.4601 4.4 15.3501 3.78Z" fill="currentColor"/></svg>
<svg viewBox="0 0 24 24" fill="none" id="word list"><path d="M21 7V17C21 20 19.5 22 16 22H8C4.5 22 3 20 3 17V7C3 4 4.5 2 8 2H16C19.5 2 21 4 21 7Z" stroke="currentColor" stroke-width="1.5" stroke-miterlimit="10" stroke-linecap="round" stroke-linejoin="round"/><path d="M14.5 4.5V6.5C14.5 7.6 15.4 8.5 16.5 8.5H18.5" stroke="currentColor" stroke-width="1.5" stroke-miterlimit="10" stroke-linecap="round" stroke-linejoin="round"/><path d="M8 14H12" stroke="currentColor" stroke-width="1.5" stroke-miterlimit="10" stroke-linecap="round" stroke-linejoin="round"/><path d="M8 18H16" stroke="currentColor" stroke-width="1.5" stroke-miterlimit="10" stroke-linecap="round" stroke-linejoin="round"/><path d="M7.5 11.5L10.5 6L13 11.5" stroke="currentColor" stroke-width="1.5"/><path d="M8.5 9.5L12.5 9.5" stroke="currentColor" stroke-width="1.5"/></svg>
<svg viewBox="0 0 42 24" fill="none" id="amex"><rect x="1" width="40" height="24" rx="4" fill="#006FCF"/><path fill-rule="evenodd" clip-rule="evenodd" d="M41.1026 13.0889H39.0166C38.387 13.0889 37.9297 13.2392 37.6059 13.4729V13.0889H34.5203C34.0269 13.0889 33.4477 13.2109 33.1738 13.4729V13.0889H27.6638V13.4729C27.2253 13.1576 26.4854 13.0889 26.1439 13.0889H22.5094V13.4729C22.1625 13.138 21.391 13.0889 20.9208 13.0889H16.8532L15.9224 14.0932L15.0507 13.0889H8.97461V19.6507H14.9363L15.8954 18.6305L16.7989 19.6507L20.4737 19.654V18.1104H20.835C21.3226 18.1179 21.8977 18.0983 22.405 17.8797V19.6506H25.4361V17.9403H25.5823C25.7689 17.9403 25.7873 17.948 25.7873 18.1339V19.6504H34.9951C35.5797 19.6504 36.1908 19.5012 36.5291 19.2305V19.6504H39.4498C40.0576 19.6504 40.6512 19.5655 41.1028 19.3479C41.1028 -16.5536 41.1026 28.1207 41.1026 13.0889Z" fill="#006FCF" stroke="white" stroke-width="0.5"/><path fill-rule="evenodd" clip-rule="evenodd" d="M2.92603 11.5572L3.36028 10.513H4.33247L4.76558 11.5572H8.55491V10.7589L8.89315 11.5607H10.8603L11.1985 10.747V11.5572H20.6157L20.6113 9.84306H20.7935C20.9211 9.84746 20.9584 9.85923 20.9584 10.0692V11.5572H25.829V11.1582C26.2219 11.3681 26.8329 11.5572 27.637 11.5572H29.686L30.1245 10.513H31.0967L31.5256 11.5572H35.4742V10.5653L36.0722 11.5572H39.2364V5H36.1049V5.77442L35.6664 5H32.4531V5.77442L32.0504 5H27.7101C26.9835 5 26.3449 5.10111 25.829 5.38288V5H22.8338V5.38288C22.5055 5.09246 22.0582 5 21.5608 5H10.6181L9.88383 6.69362L9.12983 5H5.68315V5.77442L5.30451 5H2.36505L1 8.11767V11.5572H2.92603Z" fill="#006FCF" stroke="white" stroke-width="0.5"/><path fill-rule="evenodd" clip-rule="evenodd" d="M20.8852 17.1428C21.8704 17.1428 22.848 16.8731 22.848 15.5667C22.848 14.2644 21.843 14.0175 20.9485 14.0175H17.3467L15.913 15.5589L14.5262 14.0175H9.99268V18.7201H14.4575L15.8999 17.1634L17.2879 18.7201H19.4787V17.1428H20.8852ZM19.4787 16.1877H20.9354C21.3685 16.1877 21.6379 15.9735 21.6379 15.5668C21.6379 15.1555 21.3554 14.9902 20.9485 14.9902H19.4787V16.1877ZM13.8868 17.7401H11.1155V16.8045H13.5901V15.845H11.1155V14.99H13.9415L15.1744 16.3605L13.8868 17.7401ZM18.3561 18.2925L16.6255 16.3769L18.3561 14.5222V18.2925Z" fill="white"/><path fill-rule="evenodd" clip-rule="evenodd" d="M27.6686 16.9295C27.5724 16.7925 27.3673 16.627 27.1164 16.5347C27.4131 16.4173 27.9152 16.0343 27.9154 15.2837C27.9154 14.7472 27.6916 14.4537 27.3359 14.2394C26.9659 14.0426 26.5503 14.0175 25.9797 14.0175H23.3773V18.7201H24.5099V17.0026H25.7145C26.1257 17.0026 26.3768 17.0428 26.5415 17.2113C26.7301 17.4081 26.7268 17.7672 26.7243 18.0433C26.724 18.0739 26.7237 18.1035 26.7237 18.1318V18.7201H27.8553V17.7879C27.8508 17.3734 27.8277 17.1591 27.6686 16.9295ZM26.4357 15.9495C26.2849 16.0387 26.0984 16.0464 25.8791 16.0464H24.5098V14.9902H25.8977C26.0984 14.9902 26.2993 14.9944 26.4357 15.0751C26.5818 15.1513 26.6691 15.2969 26.6691 15.4981C26.6691 15.6994 26.5818 15.8614 26.4357 15.9495Z" fill="white"/><path d="M36.6068 16.2399C36.8262 16.4664 36.9438 16.7523 36.9438 17.2363C36.9438 18.2479 36.3099 18.7201 35.1731 18.7201H32.9777V17.7117H35.1643C35.3781 17.7117 35.5297 17.6835 35.6247 17.5953C35.7023 17.5226 35.7579 17.4169 35.7579 17.2886C35.7579 17.1516 35.6977 17.0428 35.6203 16.9776C35.5341 16.9058 35.4152 16.8732 35.2189 16.8732C35.1499 16.8709 35.0798 16.869 35.0089 16.867C33.9976 16.8396 32.8447 16.8084 32.8447 15.4177C32.8447 14.7356 33.2746 14.0176 34.4563 14.0176H36.716V15.0185H34.6483C34.4433 15.0185 34.3101 15.0262 34.1967 15.1034C34.0732 15.1796 34.0274 15.2926 34.0274 15.4418C34.0274 15.6192 34.1323 15.7399 34.2741 15.7921C34.393 15.8333 34.5207 15.8454 34.7127 15.8454L35.3195 15.8617C35.9314 15.8766 36.3514 15.9821 36.6068 16.2399Z" fill="white"/><path d="M41.103 15.0182H39.0487C38.8436 15.0182 38.7073 15.0259 38.5925 15.1031C38.4736 15.1793 38.4278 15.2923 38.4278 15.4415C38.4278 15.6189 38.5282 15.7396 38.6743 15.7918C38.7932 15.833 38.9209 15.8451 39.1087 15.8451L39.7196 15.8614C40.3361 15.8766 40.7475 15.9822 40.9984 16.2399C41.037 16.2702 41.0626 16.3036 41.0885 16.3375L41.0955 16.3467L41.1 16.3525L41.103 16.3563V18.1186C40.8292 18.5178 40.2957 18.7202 39.5734 18.7202H37.3966V17.7117H39.5646C39.7796 17.7117 39.9301 17.6835 40.0207 17.5953C40.0992 17.5226 40.154 17.4169 40.154 17.2886C40.154 17.1516 40.0992 17.0428 40.0163 16.9776C39.9345 16.9058 39.8155 16.8732 39.6192 16.8732C39.5499 16.8709 39.4796 16.869 39.4086 16.8671C38.3937 16.8397 37.2404 16.8085 37.2404 15.4177C37.2404 14.7356 37.6748 14.0176 38.8576 14.0176H41.1029L41.103 15.0182Z" fill="white"/><path d="M28.5404 14.0175H32.3024V14.99H29.6629V15.845H32.2379V16.8044H29.6629V17.7401L32.3024 17.7444V18.7201H28.5404V14.0175Z" fill="white"/><path fill-rule="evenodd" clip-rule="evenodd" d="M4.61491 8.5981L3.84342 6.72381L3.07633 8.5981H4.61491ZM21.6108 7.8518C21.4559 7.94554 21.2727 7.94866 21.0532 7.94866H19.6839V6.90438H21.0719C21.2683 6.90438 21.4732 6.91317 21.6064 6.98918C21.7526 7.05767 21.8431 7.20345 21.8431 7.40482C21.8431 7.6103 21.757 7.77565 21.6108 7.8518ZM31.3793 8.5981L30.5993 6.72381L29.8235 8.5981H31.3793ZM13.1702 10.6268H12.0146L12.0104 6.94462L10.3759 10.6268H9.38624L7.74753 6.94135V10.6268H5.45495L5.02184 9.57815H2.67494L2.23742 10.6268H1.01318L3.03167 5.92529H4.70636L6.62343 10.3767V5.92529H8.46312L9.93826 9.11472L11.2933 5.92529H13.17V10.6268H13.1702ZM17.7757 10.6268H14.0102V5.92529H17.7757V6.90434H15.1375V7.75179H17.7124V8.71553H15.1375V9.65444H17.7757V10.6268ZM23.0848 7.19151C23.0848 7.94111 22.583 8.32839 22.2905 8.44467C22.5372 8.53827 22.7478 8.70361 22.8481 8.8406C23.0073 9.07445 23.0347 9.28333 23.0347 9.70323V10.6268H21.8978L21.8935 10.0339C21.8935 9.75102 21.9207 9.34417 21.7156 9.11798C21.5509 8.95263 21.2998 8.91675 20.894 8.91675H19.684V10.6268H18.557V5.92529H21.1495C21.7256 5.92529 22.15 5.94047 22.5144 6.15049C22.871 6.3605 23.0848 6.6671 23.0848 7.19151ZM24.8886 10.6268H23.7385V5.92529H24.8886V10.6268ZM38.2316 10.6268H36.6343L34.4977 7.09805V10.6268H32.2022L31.7635 9.57815H29.422L28.9964 10.6268H27.6775C27.1296 10.6268 26.4359 10.506 26.043 10.1068C25.6469 9.70762 25.4408 9.1669 25.4408 8.31194C25.4408 7.61466 25.564 6.97723 26.0484 6.47353C26.4128 6.0983 26.9835 5.92529 27.7602 5.92529H28.8515V6.9327H27.7831C27.3718 6.9327 27.1395 6.99368 26.9158 7.21122C26.7236 7.40918 26.5918 7.78342 26.5918 8.2762C26.5918 8.77991 26.6922 9.14308 26.9017 9.38033C27.0752 9.56638 27.3906 9.62282 27.6873 9.62282H28.1935L29.7821 5.92543H31.4711L33.3795 10.3724V5.92543H35.0957L37.077 9.1998V5.92543H38.2316V10.6268Z" fill="white"/></svg>
<svg viewBox="0 0 40 24" fill="none" id="diners"><rect x="0.25" y="0.25" width="39.5" height="23.5" rx="3.75" stroke="#D9DFEB" stroke-width="0.5"/><path fill-rule="evenodd" clip-rule="evenodd" d="M10.3618 12.1605C10.3618 7.55129 14.0983 3.81481 18.7073 3.81481C23.3166 3.81481 27.053 7.55129 27.053 12.1605C27.053 16.7697 23.3166 20.5064 18.7073 20.5064C14.0983 20.5064 10.3618 16.7697 10.3618 12.1605Z" fill="#FFFFFE"/><path fill-rule="evenodd" clip-rule="evenodd" d="M23.7547 11.9962C23.7514 9.859 22.4155 8.03627 20.5331 7.31442V16.6776C22.4155 15.9548 23.7514 14.1338 23.7547 11.9962ZM16.9421 16.6758V7.31541C15.0613 8.0395 13.7275 9.85961 13.7225 11.9963C13.7275 14.1324 15.0613 15.9523 16.9421 16.6758ZM18.7385 4.08212C14.3679 4.0838 10.8269 7.62554 10.8261 11.9962C10.8269 16.3663 14.3679 19.9075 18.7385 19.9082C23.1092 19.9075 26.6509 16.3663 26.6521 11.9962C26.6509 7.62554 23.1092 4.0838 18.7385 4.08212ZM18.7191 20.6551C13.9364 20.6779 10 16.8032 10 12.0865C10 6.93169 13.9364 3.36626 18.7191 3.36719H20.9604C25.6866 3.36626 30 6.93001 30 12.0865C30 16.8015 25.6866 20.6551 20.9604 20.6551H18.7191Z" fill="#0069AA"/></svg>
<svg viewBox="0 0 34 24" fill="none" id="mastercard"><rect width="34" height="24" rx="4" fill="#252525"/><g clip-path="url(#clip0_151_4013)"><path d="M29.7524 16.8692V16.5607H29.6711L29.5771 16.7724L29.4837 16.5607H29.4021V16.8692H29.4599V16.6368L29.5477 16.8373H29.6075L29.6954 16.6362V16.8692H29.7526H29.7524ZM29.2369 16.8692V16.6135H29.3409V16.5614H29.0752V16.6135H29.1792V16.8692H29.2364H29.2369Z" fill="#F79410"/><path d="M20.5175 18.1923H13.4863V5.69873H20.5176L20.5175 18.1923Z" fill="#FF5F00"/><path d="M13.932 11.9456C13.932 9.41132 15.1322 7.15374 17.001 5.69885C15.5864 4.59596 13.8367 3.99738 12.0352 4.00001C7.59736 4.00001 4 7.55733 4 11.9456C4 16.3339 7.59736 19.8913 12.0352 19.8913C13.8367 19.8939 15.5865 19.2954 17.0012 18.1924C15.1324 16.7378 13.932 14.4801 13.932 11.9456Z" fill="#EB001B"/><path d="M30.0033 11.9458C30.0033 16.3341 26.4059 19.8914 21.9681 19.8914C20.1664 19.894 18.4164 19.2955 17.0015 18.1926C18.8709 16.7377 20.071 14.4802 20.071 11.9458C20.071 9.41133 18.8709 7.15387 17.0015 5.69899C18.4164 4.59613 20.1663 3.99756 21.968 4.00015C26.4058 4.00015 30.0032 7.55747 30.0032 11.9458" fill="#F79E1B"/></g><defs><clipPath id="clip0_151_4013"><rect width="26" height="16" fill="white" transform="translate(4 4)"/></clipPath></defs></svg>
<svg viewBox="0 0 40 24" fill="none" id="visa"><rect x="0.25" y="0.25" width="39.5" height="23.5" rx="3.75" stroke="#D9DFEB" stroke-width="0.5"/><g clip-path="url(#clip0_151_4014)"><path d="M24.8428 7.01219C22.5706 7.01219 20.5402 8.14528 20.5402 10.2388C20.5402 12.6396 24.1413 12.8054 24.1413 14.0115C24.1413 14.5193 23.5364 14.9739 22.5033 14.9739C21.0371 14.9739 19.9412 14.3387 19.9412 14.3387L19.4723 16.4512C19.4723 16.4512 20.7347 16.9878 22.4108 16.9878C24.8949 16.9878 26.8496 15.7991 26.8496 13.6698C26.8496 11.1329 23.2335 10.972 23.2335 9.85259C23.2335 9.45472 23.7301 9.01885 24.7602 9.01885C25.9226 9.01885 26.8709 9.48082 26.8709 9.48082L27.3298 7.44048C27.3298 7.44048 26.2979 7.01219 24.8428 7.01219ZM4.05503 7.16619L4 7.47417C4 7.47417 4.9559 7.64247 5.81682 7.97824C6.92533 8.36323 7.00432 8.58738 7.191 9.28352L9.22535 16.829H11.9525L16.1538 7.16619H13.433L10.7334 13.736L9.63178 8.1671C9.53075 7.52977 9.019 7.16619 8.39262 7.16619H4.05503ZM17.2479 7.16619L15.1135 16.829H17.708L19.835 7.16616H17.2479V7.16619ZM31.7187 7.16619C31.093 7.16619 30.7615 7.48847 30.5183 8.05162L26.7171 16.829H29.438L29.9644 15.3661H33.2791L33.5993 16.829H36L33.9056 7.16619H31.7187ZM32.0725 9.77678L32.879 13.4027H30.7183L32.0725 9.77678Z" fill="#1434CB"/></g><defs><clipPath id="clip0_151_4014"><rect width="32" height="10" fill="white" transform="translate(4 7)"/></clipPath></defs></svg>
</svg>