<svg viewBox="0 0 240 240" fill="none" xmlns="http://www.w3.org/2000/svg"><circle cx="120" cy="120" r="120" fill="#F1F6FF"/><g clip-path="url(#access-denied-clip)"><path d="M179.8 127.8V185a10.403 10.403 0 0 1-10.4 10.4H55A10.401 10.401 0 0 1 44.6 185v-57.2a5.216 5.216 0 0 1 5.2-5.2H81a5.223 5.223 0 0 1 4.16 2.08l4.68 6.24A5.233 5.233 0 0 0 94 133h36.4a5.239 5.239 0 0 0 4.16-2.08l4.68-6.24a5.24 5.24 0 0 1 4.16-2.08h31.2a5.214 5.214 0 0 1 5.2 5.2Z" fill="#D5E0F3"/><path d="M174.6 122.6h-7.8a5.214 5.214 0 0 1 5.2 5.2V185a10.403 10.403 0 0 1-10.4 10.4h7.8a10.401 10.401 0 0 0 10.4-10.4v-57.2a5.213 5.213 0 0 0-5.2-5.2Z" fill="#A3B2D0"/><path d="M172 60.2v62.4h-28.6a5.224 5.224 0 0 0-4.16 2.08l-4.68 6.24a5.236 5.236 0 0 1-4.16 2.08H94a5.238 5.238 0 0 1-4.16-2.08l-4.68-6.24A5.236 5.236 0 0 0 81 122.6H52.4V61.474a7.8 7.8 0 0 1 .39-2.47l3.042-9.074a7.776 7.776 0 0 1 7.384-5.33h19.968a7.777 7.777 0 0 1 7.384 5.33L94 60.2h78Z" fill="#ECEFF6"/><path d="M164.2 60.2h7.8v62.399h-7.8v-62.4Z" fill="#CAD9FC"/><path d="M109.6 60.2H94l-3.432-10.27a7.777 7.777 0 0 0-7.384-5.33h15.6a7.778 7.778 0 0 1 7.384 5.33L109.6 60.2Z" fill="#E8EDFC"/><path d="M125.2 60.2h-15.6l-3.432-10.27a7.777 7.777 0 0 0-7.384-5.33h15.6a7.778 7.778 0 0 1 7.384 5.33L125.2 60.2Z" fill="#E8EDFC"/><path d="M166.8 101.8c15.795 0 28.6-12.805 28.6-28.6 0-15.796-12.805-28.6-28.6-28.6-15.796 0-28.6 12.804-28.6 28.6 0 15.795 12.804 28.6 28.6 28.6Z" fill="#FFC1C7"/><path d="M166.8 44.6c-1.305.01-2.608.109-3.9.296A28.569 28.569 0 0 1 187.602 73.2a28.57 28.57 0 0 1-24.702 28.303 28.578 28.578 0 0 0 21.95-6.13A28.586 28.586 0 0 0 166.8 44.6Z" fill="#FF949E"/><path d="m175.458 57.184-24.674 24.674A17.98 17.98 0 0 1 148.6 73.2 18.197 18.197 0 0 1 166.8 55c3.024-.011 6.002.74 8.658 2.184Z" fill="#E8EDFC"/><path d="m182.816 64.542-24.674 24.674a18.22 18.22 0 0 1-7.358-7.358l24.674-24.674a18.226 18.226 0 0 1 7.358 7.358Z" fill="#FFC1C7"/><path d="M185 73.201a18.2 18.2 0 0 1-18.2 18.2 17.977 17.977 0 0 1-8.658-2.184l24.674-24.674A17.98 17.98 0 0 1 185 73.201Z" fill="#E8EDFC"/><path d="M55 195.4h7.8A10.401 10.401 0 0 1 52.4 185v-57.2a5.218 5.218 0 0 1 5.2-5.2h2.6V61.474a7.8 7.8 0 0 1 .39-2.47l3.042-9.074a7.776 7.776 0 0 1 7.384-5.33h-7.8a7.777 7.777 0 0 0-7.384 5.33l-3.042 9.074a7.8 7.8 0 0 0-.39 2.47V122.6h-2.6a5.216 5.216 0 0 0-5.2 5.2V185A10.402 10.402 0 0 0 55 195.4Z" fill="#fff"/><path d="M49.8 101.801H55v20.8h-5.2v-20.8Z" fill="#fff"/><path d="M52.4 114.8a2.6 2.6 0 1 0 0-5.2 2.6 2.6 0 0 0 0 5.2Z" fill="#BAC8E5"/><path d="M146 146a5.28 5.28 0 0 1-5.317-3.38c-.1-.326-.263-.63-.481-.893a2.615 2.615 0 0 0-2.768-.832 2.606 2.606 0 0 0-1.725 3.249A10.535 10.535 0 0 0 146 151.2a2.6 2.6 0 1 0 0-5.2ZM88.69 144.146a2.583 2.583 0 0 0-1.713-3.206 2.622 2.622 0 0 0-3.257 1.68A5.289 5.289 0 0 1 78.4 146a2.602 2.602 0 0 0-2.6 2.6 2.6 2.6 0 0 0 2.6 2.6 10.532 10.532 0 0 0 10.29-7.054ZM55 177.199a2.599 2.599 0 0 0-2.6 2.6v5.2a2.602 2.602 0 0 0 4.439 1.839 2.601 2.601 0 0 0 .761-1.839v-5.2a2.599 2.599 0 0 0-2.6-2.6ZM55 130.4a2.599 2.599 0 0 0-2.6 2.6v36.4a2.602 2.602 0 0 0 4.439 1.839 2.601 2.601 0 0 0 .761-1.839V133a2.6 2.6 0 0 0-2.6-2.6Z" fill="#90A8DD"/><path d="M166.8 42a31.2 31.2 0 0 0-26.978 15.6h-12.74l-2.839-8.489A10.4 10.4 0 0 0 114.379 42H63.216a10.338 10.338 0 0 0-9.849 7.103l-3.047 9.08a10.413 10.413 0 0 0-.52 3.291V101.8a2.601 2.601 0 1 0 5.2 0V61.474a5.222 5.222 0 0 1 .26-1.646l3.047-9.1a5.152 5.152 0 0 1 4.909-3.528h19.968a5.16 5.16 0 0 1 4.92 3.552L90.39 57.6H78.4a2.6 2.6 0 0 0 0 5.2h59.02a31.123 31.123 0 0 0 3.879 28.435A31.11 31.11 0 0 0 166.8 104.4c.879 0 1.739-.06 2.6-.133V120h-26a7.845 7.845 0 0 0-6.24 3.12l-4.68 6.24a2.62 2.62 0 0 1-2.08 1.04H94a2.618 2.618 0 0 1-2.08-1.04l-4.68-6.24A7.84 7.84 0 0 0 81 120H49.8a7.8 7.8 0 0 0-7.8 7.8V185a13.015 13.015 0 0 0 13 13h114.4a13.015 13.015 0 0 0 13-13v-57.2a7.797 7.797 0 0 0-2.285-5.515A7.797 7.797 0 0 0 174.6 120v-16.627a31.182 31.182 0 0 0 23.154-34.125A31.178 31.178 0 0 0 166.8 42ZM95.872 57.6l-2.834-8.481a10.458 10.458 0 0 0-.881-1.919h6.622a5.202 5.202 0 0 1 4.94 3.557l2.272 6.843H95.872Zm15.6 0-2.829-8.489a10.425 10.425 0 0 0-.886-1.911h6.622a5.2 5.2 0 0 1 4.94 3.557l2.272 6.843h-10.119Zm65.728 70.2V185a7.797 7.797 0 0 1-2.285 5.515 7.797 7.797 0 0 1-5.515 2.285H55a7.8 7.8 0 0 1-7.8-7.8v-57.2a2.597 2.597 0 0 1 2.6-2.6H81a2.618 2.618 0 0 1 2.08 1.04l4.68 6.24a7.83 7.83 0 0 0 2.754 2.292A7.83 7.83 0 0 0 94 135.6h36.4a7.845 7.845 0 0 0 6.24-3.12l4.68-6.24a2.62 2.62 0 0 1 2.08-1.04h31.2c.69 0 1.351.274 1.838.762.488.487.762 1.148.762 1.838Zm-10.4-28.6a26.002 26.002 0 0 1-24.021-16.05 25.998 25.998 0 0 1 45.639-24.395A26 26 0 0 1 192.8 73.2a26.028 26.028 0 0 1-26 26Z" fill="#BAC8E5"/><path d="M166.8 52.4a20.801 20.801 0 0 0-14.708 35.508 20.803 20.803 0 0 0 32.003-3.152A20.804 20.804 0 0 0 187.6 73.2a20.82 20.82 0 0 0-20.8-20.8Zm-15.056 24.82a15.541 15.541 0 0 1 11.004-19.097 15.545 15.545 0 0 1 8.072.02L151.744 77.22Zm2.34 5.002 21.738-21.725a15.767 15.767 0 0 1 3.682 3.681l-21.726 21.726a15.743 15.743 0 0 1-3.681-3.682h-.013ZM182.4 73.2a15.535 15.535 0 0 1-1.591 6.906 15.534 15.534 0 0 1-10.947 8.4 15.542 15.542 0 0 1-7.081-.249l19.076-19.076c.356 1.31.539 2.662.543 4.02Z" fill="#FF8289"/><path d="M112.2 172c-9.563 0-12.74 9.186-12.867 9.578a2.608 2.608 0 0 0 1.642 3.299 2.608 2.608 0 0 0 3.298-1.642 8.94 8.94 0 0 1 7.927-6.035 8.936 8.936 0 0 1 7.933 6.022 2.603 2.603 0 1 0 4.94-1.644c-.133-.392-3.31-9.578-12.873-9.578ZM95.162 159.273l-10.4-5.2a2.594 2.594 0 0 0-2.867.363 2.596 2.596 0 0 0-.762 2.788 2.6 2.6 0 0 0 1.305 1.503l5.748 2.873-5.748 2.86a2.607 2.607 0 0 0-1.305 1.503 2.601 2.601 0 0 0 3.63 3.151l10.4-5.2a2.604 2.604 0 0 0 1.44-2.327 2.597 2.597 0 0 0-1.44-2.327v.013ZM143.14 155.238a2.602 2.602 0 0 0-3.489-1.165l-10.4 5.2a2.599 2.599 0 0 0 0 4.654l10.4 5.2a2.6 2.6 0 1 0 2.324-4.654l-5.761-2.873 5.748-2.86a2.587 2.587 0 0 0 1.319-1.505 2.6 2.6 0 0 0-.141-1.997Z" fill="#90A8DD"/></g><defs><clipPath id="access-denied-clip"><path fill="#fff" transform="translate(42 42)" d="M0 0h156v156H0z"/></clipPath></defs></svg>
