<svg xmlns="http://www.w3.org/2000/svg" viewBox="0 0 32 32" fill="none"><path fill="url(#folder-linear-gradient)" d="M28.281 11.053c.36.591-.118 1.28-.81 1.28H3.666a1 1 0 0 1-1-1V8.56a5.895 5.895 0 0 1 5.893-5.893h3.094c2.173 0 2.853.707 3.72 1.867l1.866 2.48c.414.546.467.613 1.24.613h3.72a7.107 7.107 0 0 1 6.082 3.426Z"/><path fill="url(#folder-linear-gradient-b)" d="M28.31 14.333a1 1 0 0 1 1 .997l.023 6.87c0 3.933-3.2 7.133-7.134 7.133H9.8c-3.933 0-7.133-3.2-7.133-7.133v-6.867a1 1 0 0 1 1-1h24.643Z"/><defs><linearGradient id="folder-linear-gradient" x1="2.666" x2="30.162" y1="2.667" y2="6.222" gradientUnits="userSpaceOnUse"><stop stop-color="#FF8289"/><stop offset="1" stop-color="#C650FE"/></linearGradient><linearGradient id="folder-linear-gradient-b" x1="2.666" x2="30.888" y1="14.333" y2="16.724" gradientUnits="userSpaceOnUse"><stop stop-color="#FF8289"/><stop offset="1" stop-color="#C650FE"/></linearGradient></defs></svg>
