<svg viewBox="0 0 240 240" fill="none" xmlns="http://www.w3.org/2000/svg"><circle cx="120" cy="120" r="120" fill="#F1F6FF"/><g clip-path="url(#not-found-icon-clip)"><path d="M187.6 130.399v54.6a10.401 10.401 0 0 1-10.4 10.4H62.8a10.397 10.397 0 0 1-10.4-10.4v-54.6a5.214 5.214 0 0 1 5.2-5.2h31.2a5.238 5.238 0 0 1 4.16 2.08l4.68 6.24a5.237 5.237 0 0 0 4.16 2.08h36.4a5.224 5.224 0 0 0 4.16-2.08l4.68-6.24a5.236 5.236 0 0 1 4.16-2.08h31.2a5.215 5.215 0 0 1 5.2 5.2Z" fill="#D5E0F3"/><path d="M182.4 125.199h-7.8a5.215 5.215 0 0 1 5.2 5.2v54.6a10.401 10.401 0 0 1-10.4 10.4h7.8a10.397 10.397 0 0 0 10.4-10.4v-54.6a5.215 5.215 0 0 0-5.2-5.2Z" fill="#A3B2D0"/><path d="M179.8 74.916V125.2h-28.6a5.224 5.224 0 0 0-4.16 2.08l-4.68 6.24a5.247 5.247 0 0 1-4.16 2.08h-36.4a5.237 5.237 0 0 1-4.16-2.08l-4.68-6.24a5.236 5.236 0 0 0-4.16-2.08H60.2V55a10.4 10.4 0 0 1 10.4-10.4h78.884a10.55 10.55 0 0 1 4.316.936V65.4a5.212 5.212 0 0 0 5.2 5.2h19.864a10.55 10.55 0 0 1 .936 4.316Z" fill="#ECEFF6"/><path d="M178.864 70.6h-7.8a10.55 10.55 0 0 1 .936 4.316V125.2h7.8V74.916a10.55 10.55 0 0 0-.936-4.316Z" fill="#DBE6FF"/><path d="M178.864 70.6H159a5.214 5.214 0 0 1-5.2-5.2V45.534a10.634 10.634 0 0 1 3.042 2.106l19.916 19.916a10.643 10.643 0 0 1 2.106 3.042ZM96.6 166.8a5.2 5.2 0 1 0 0-10.4 5.2 5.2 0 0 0 0 10.4ZM143.4 166.8a5.2 5.2 0 1 0 0-10.4 5.2 5.2 0 0 0 0 10.4ZM146 83.6a28.597 28.597 0 0 1-17.655 26.424 28.595 28.595 0 0 1-31.168-6.2A28.6 28.6 0 0 1 117.4 55.001 28.372 28.372 0 0 1 146 83.6Z" fill="#E8EDFC"/><path d="M117.4 55c-1.305.01-2.608.11-3.9.296a28.59 28.59 0 0 1 24.222 23.034 28.588 28.588 0 0 1-14.186 30.266 28.193 28.193 0 0 1-9.966 3.328 28.59 28.59 0 0 0 29.176-15.234A28.587 28.587 0 0 0 117.4 55Z" fill="#FFD5D9"/><path d="M148.912 115.111a7.8 7.8 0 0 1-11.024 0l-6.552-6.526a28.569 28.569 0 0 0 11.05-11.05l6.526 6.552a7.8 7.8 0 0 1 0 11.024Z" fill="#E8EDFC"/><path d="M60.2 185v-54.6a5.218 5.218 0 0 1 5.2-5.2H68V55a10.4 10.4 0 0 1 10.4-10.4h-7.8A10.4 10.4 0 0 0 60.2 55v70.2h-2.6a5.216 5.216 0 0 0-5.2 5.2V185a10.402 10.402 0 0 0 10.4 10.4h7.8A10.402 10.402 0 0 1 60.2 185Z" fill="#fff"/><path d="M57.6 55h5.2v20.8h-5.2V55Z" fill="#fff"/><path d="M60.2 68a2.6 2.6 0 1 0 0-5.2 2.6 2.6 0 0 0 0 5.2Z" fill="#BAC8E5"/><path d="M182.4 122.6V74.908a12.923 12.923 0 0 0-3.809-9.193l-19.906-19.906A12.914 12.914 0 0 0 149.492 42H70.6a13.016 13.016 0 0 0-13 13 2.6 2.6 0 1 0 5.2 0 7.8 7.8 0 0 1 7.8-7.8h78.892a7.807 7.807 0 0 1 1.708.203V65.4a7.8 7.8 0 0 0 7.8 7.8h17.997c.131.56.199 1.133.203 1.708V122.6h-26a7.82 7.82 0 0 0-6.24 3.12l-4.68 6.24a2.61 2.61 0 0 1-2.08 1.04h-36.4a2.606 2.606 0 0 1-2.08-1.04l-4.68-6.24a7.823 7.823 0 0 0-6.24-3.12h-26V75.8a2.6 2.6 0 0 0-5.2 0v46.8a7.8 7.8 0 0 0-7.8 7.8V185a13.015 13.015 0 0 0 13 13h114.4a13.015 13.015 0 0 0 13-13v-54.6a7.797 7.797 0 0 0-2.285-5.515 7.797 7.797 0 0 0-5.515-2.285ZM159 68a2.597 2.597 0 0 1-2.6-2.6V50.876L173.524 68H159Zm26 117a7.797 7.797 0 0 1-2.285 5.515 7.797 7.797 0 0 1-5.515 2.285H62.8A7.8 7.8 0 0 1 55 185v-54.6a2.597 2.597 0 0 1 2.6-2.6h31.2a2.594 2.594 0 0 1 2.08 1.04l4.68 6.24a7.823 7.823 0 0 0 6.24 3.12h36.4a7.83 7.83 0 0 0 6.24-3.12l4.68-6.24a2.62 2.62 0 0 1 2.08-1.04h31.2c.69 0 1.351.274 1.838.762.488.487.762 1.148.762 1.838V185Z" fill="#BAC8E5"/><path d="M146 140.801a2.6 2.6 0 1 0 0 5.2 5.292 5.292 0 0 1 5.32 3.38 2.598 2.598 0 0 0 4.123 1.235 2.596 2.596 0 0 0 .848-2.761 10.535 10.535 0 0 0-3.988-5.216 10.535 10.535 0 0 0-6.303-1.838ZM94 146.001a2.599 2.599 0 1 0 0-5.2 10.531 10.531 0 0 0-10.29 7.054 2.58 2.58 0 0 0 1.713 3.205c.252.081.515.121.78.12a2.625 2.625 0 0 0 2.483-1.799 5.283 5.283 0 0 1 5.314-3.38ZM62.8 177.199a2.599 2.599 0 0 0-2.6 2.6v5.2a2.601 2.601 0 1 0 5.2 0v-5.2a2.599 2.599 0 0 0-2.6-2.6ZM62.8 130.4a2.599 2.599 0 0 0-2.6 2.6v36.4a2.601 2.601 0 1 0 5.2 0V133a2.6 2.6 0 0 0-2.6-2.6ZM96.6 153.801a7.8 7.8 0 1 0-.001 15.6 7.8 7.8 0 0 0 .001-15.6Zm0 10.4a2.606 2.606 0 0 1-2.402-1.605 2.599 2.599 0 0 1 3.397-3.397 2.597 2.597 0 0 1 .844 4.24 2.599 2.599 0 0 1-1.839.762ZM143.4 153.801a7.796 7.796 0 0 0-7.206 4.815 7.792 7.792 0 0 0 1.691 8.5 7.794 7.794 0 0 0 8.5 1.691 7.796 7.796 0 0 0 4.815-7.206 7.8 7.8 0 0 0-7.8-7.8Zm0 10.4a2.603 2.603 0 0 1-2.402-1.605 2.6 2.6 0 1 1 2.402 1.605ZM106.398 184.925a2.602 2.602 0 0 0 3.12-1.929c.026-.057 1.495-5.801 10.481-5.801 8.759 0 10.4 5.531 10.478 5.832a2.6 2.6 0 0 0 5.051-1.232c-.093-.403-2.48-9.8-15.529-9.8-13.05 0-15.437 9.397-15.53 9.8a2.6 2.6 0 0 0 1.929 3.13Z" fill="#90A8DD"/><path d="M117.4 52.4a31.201 31.201 0 0 0-24.52 50.605A31.196 31.196 0 0 0 117.26 114.8a31.197 31.197 0 0 0 13.547-3.07l5.242 5.221a10.403 10.403 0 0 0 14.47-.228 10.397 10.397 0 0 0 .233-14.47l-5.224-5.244a31.124 31.124 0 0 0-13.053-40.754A31.127 31.127 0 0 0 117.4 52.4Zm0 57.201a26.002 26.002 0 0 1-18.385-44.385 25.998 25.998 0 0 1 40.003 3.94A26 26 0 0 1 143.4 83.6a26.028 26.028 0 0 1-26 26.001Zm29.674-3.674a5.21 5.21 0 0 1 1.676 3.719 5.196 5.196 0 0 1-3.261 4.931 5.2 5.2 0 0 1-5.765-1.305l-4.28-4.264a31.44 31.44 0 0 0 7.363-7.363l4.267 4.282Z" fill="#FF8289"/><path d="M127.334 93.822c-1.15 1.181-3.097 1.181-4.246 0l-5.838-5.819-5.821 5.819c-1.17 1.185-3.097 1.185-4.25 0-1.182-1.15-1.182-3.1 0-4.249L113 83.755l-5.821-5.835a2.994 2.994 0 0 1 0-4.26c1.141-1.174 3.059-1.19 4.25 0l5.821 5.818 5.838-5.818a3.008 3.008 0 0 1 4.246 0c1.132 1.099 1.232 3.029 0 4.26l-5.821 5.835 5.821 5.818a2.974 2.974 0 0 1 0 4.249Z" fill="#FF8289"/></g><defs><clipPath id="not-found-icon-clip"><path fill="#fff" transform="translate(42 42)" d="M0 0h156v156H0z"/></clipPath></defs></svg>
